<?xml version="1.0" encoding="utf-8" standalone="no"?>
<!DOCTYPE svg PUBLIC "-//W3C//DTD SVG 1.1//EN"
  "http://www.w3.org/Graphics/SVG/1.1/DTD/svg11.dtd">
<svg xmlns:xlink="http://www.w3.org/1999/xlink" width="773.4775pt" height="736.9775pt" viewBox="0 0 773.4775 736.9775" xmlns="http://www.w3.org/2000/svg" version="1.1">
 <metadata>
  <rdf:RDF xmlns:dc="http://purl.org/dc/elements/1.1/" xmlns:cc="http://creativecommons.org/ns#" xmlns:rdf="http://www.w3.org/1999/02/22-rdf-syntax-ns#">
   <cc:Work>
    <dc:type rdf:resource="http://purl.org/dc/dcmitype/StillImage"/>
    <dc:date>2026-05-06T13:40:02.190305</dc:date>
    <dc:format>image/svg+xml</dc:format>
    <dc:creator>
     <cc:Agent>
      <dc:title>Matplotlib v3.10.8, https://matplotlib.org/</dc:title>
     </cc:Agent>
    </dc:creator>
   </cc:Work>
  </rdf:RDF>
 </metadata>
 <defs>
  <style type="text/css">*{stroke-linejoin: round; stroke-linecap: butt}</style>
 </defs>
 <g id="figure_1">
  <g id="patch_1">
   <path d="M 0 736.9775 
L 773.4775 736.9775 
L 773.4775 0 
L 0 0 
z
" style="fill: #ffffff"/>
  </g>
  <g id="axes_1">
   <g id="patch_2">
    <path d="M 40.8775 457.185 
L 766.2775 457.185 
L 766.2775 41.385 
L 40.8775 41.385 
z
" style="fill: #ffffff"/>
   </g>
   <g id="matplotlib.axis_1">
    <g id="xtick_1">
     <g id="line2d_1">
      <defs>
       <path id="m2ed08dc1b6" d="M 0 0 
L 0 3.5 
" style="stroke: #0f172a; stroke-width: 0.8"/>
      </defs>
      <g>
       <use xlink:href="#m2ed08dc1b6" x="64.791786" y="457.185" style="fill: #0f172a; stroke: #0f172a; stroke-width: 0.8"/>
      </g>
     </g>
     <g id="text_1">
      <text style="font-size: 9px; font-family: 'DejaVu Sans Mono', 'Bitstream Vera Sans Mono', 'Computer Modern Typewriter', 'Andale Mono', 'Nimbus Mono L', 'Courier New', 'Courier', 'Fixed', 'Terminal', monospace; text-anchor: end; fill: #0f172a" x="69.515038" y="468.908252" transform="rotate(-45 69.515038 468.908252)">BAYES_REG</text>
     </g>
    </g>
    <g id="xtick_2">
     <g id="line2d_2">
      <g>
       <use xlink:href="#m2ed08dc1b6" x="104.648929" y="457.185" style="fill: #0f172a; stroke: #0f172a; stroke-width: 0.8"/>
      </g>
     </g>
     <g id="text_2">
      <text style="font-size: 9px; font-family: 'DejaVu Sans Mono', 'Bitstream Vera Sans Mono', 'Computer Modern Typewriter', 'Andale Mono', 'Nimbus Mono L', 'Courier New', 'Courier', 'Fixed', 'Terminal', monospace; text-anchor: end; fill: #0f172a" x="109.518353" y="469.054425" transform="rotate(-45 109.518353 469.054425)">REGRESSION</text>
     </g>
    </g>
    <g id="xtick_3">
     <g id="line2d_3">
      <g>
       <use xlink:href="#m2ed08dc1b6" x="144.506071" y="457.185" style="fill: #0f172a; stroke: #0f172a; stroke-width: 0.8"/>
      </g>
     </g>
     <g id="text_3">
      <text style="font-size: 9px; font-family: 'DejaVu Sans Mono', 'Bitstream Vera Sans Mono', 'Computer Modern Typewriter', 'Andale Mono', 'Nimbus Mono L', 'Courier New', 'Courier', 'Fixed', 'Terminal', monospace; text-anchor: end; fill: #0f172a" x="149.229324" y="468.908252" transform="rotate(-45 149.229324 468.908252)">BOX_MULLER</text>
     </g>
    </g>
    <g id="xtick_4">
     <g id="line2d_4">
      <g>
       <use xlink:href="#m2ed08dc1b6" x="184.363214" y="457.185" style="fill: #0f172a; stroke: #0f172a; stroke-width: 0.8"/>
      </g>
     </g>
     <g id="text_4">
      <text style="font-size: 9px; font-family: 'DejaVu Sans Mono', 'Bitstream Vera Sans Mono', 'Computer Modern Typewriter', 'Andale Mono', 'Nimbus Mono L', 'Courier New', 'Courier', 'Fixed', 'Terminal', monospace; text-anchor: end; fill: #0f172a" x="189.086467" y="468.908252" transform="rotate(-45 189.086467 468.908252)">FISHER_INFO</text>
     </g>
    </g>
    <g id="xtick_5">
     <g id="line2d_5">
      <g>
       <use xlink:href="#m2ed08dc1b6" x="224.220357" y="457.185" style="fill: #0f172a; stroke: #0f172a; stroke-width: 0.8"/>
      </g>
     </g>
     <g id="text_5">
      <text style="font-size: 9px; font-family: 'DejaVu Sans Mono', 'Bitstream Vera Sans Mono', 'Computer Modern Typewriter', 'Andale Mono', 'Nimbus Mono L', 'Courier New', 'Courier', 'Fixed', 'Terminal', monospace; text-anchor: end; fill: #0f172a" x="228.943609" y="468.908252" transform="rotate(-45 228.943609 468.908252)">BAYES_FACTOR</text>
     </g>
    </g>
    <g id="xtick_6">
     <g id="line2d_6">
      <g>
       <use xlink:href="#m2ed08dc1b6" x="264.0775" y="457.185" style="fill: #0f172a; stroke: #0f172a; stroke-width: 0.8"/>
      </g>
     </g>
     <g id="text_6">
      <text style="font-size: 9px; font-family: 'DejaVu Sans Mono', 'Bitstream Vera Sans Mono', 'Computer Modern Typewriter', 'Andale Mono', 'Nimbus Mono L', 'Courier New', 'Courier', 'Fixed', 'Terminal', monospace; text-anchor: end; fill: #0f172a" x="268.800752" y="468.908252" transform="rotate(-45 268.800752 468.908252)">LOG_ML</text>
     </g>
    </g>
    <g id="xtick_7">
     <g id="line2d_7">
      <g>
       <use xlink:href="#m2ed08dc1b6" x="303.934643" y="457.185" style="fill: #0f172a; stroke: #0f172a; stroke-width: 0.8"/>
      </g>
     </g>
     <g id="text_7">
      <text style="font-size: 9px; font-family: 'DejaVu Sans Mono', 'Bitstream Vera Sans Mono', 'Computer Modern Typewriter', 'Andale Mono', 'Nimbus Mono L', 'Courier New', 'Courier', 'Fixed', 'Terminal', monospace; text-anchor: end; fill: #0f172a" x="308.657895" y="468.908252" transform="rotate(-45 308.657895 468.908252)">MSE_COMPARE</text>
     </g>
    </g>
    <g id="xtick_8">
     <g id="line2d_8">
      <g>
       <use xlink:href="#m2ed08dc1b6" x="343.791786" y="457.185" style="fill: #0f172a; stroke: #0f172a; stroke-width: 0.8"/>
      </g>
     </g>
     <g id="text_8">
      <text style="font-size: 9px; font-family: 'DejaVu Sans Mono', 'Bitstream Vera Sans Mono', 'Computer Modern Typewriter', 'Andale Mono', 'Nimbus Mono L', 'Courier New', 'Courier', 'Fixed', 'Terminal', monospace; text-anchor: end; fill: #0f172a" x="348.66121" y="469.054425" transform="rotate(-45 348.66121 469.054425)">STATIONARY</text>
     </g>
    </g>
    <g id="xtick_9">
     <g id="line2d_9">
      <g>
       <use xlink:href="#m2ed08dc1b6" x="383.648929" y="457.185" style="fill: #0f172a; stroke: #0f172a; stroke-width: 0.8"/>
      </g>
     </g>
     <g id="text_9">
      <text style="font-size: 9px; font-family: 'DejaVu Sans Mono', 'Bitstream Vera Sans Mono', 'Computer Modern Typewriter', 'Andale Mono', 'Nimbus Mono L', 'Courier New', 'Courier', 'Fixed', 'Terminal', monospace; text-anchor: end; fill: #0f172a" x="388.518353" y="469.054425" transform="rotate(-45 388.518353 469.054425)">MARKOV</text>
     </g>
    </g>
    <g id="xtick_10">
     <g id="line2d_10">
      <g>
       <use xlink:href="#m2ed08dc1b6" x="423.506071" y="457.185" style="fill: #0f172a; stroke: #0f172a; stroke-width: 0.8"/>
      </g>
     </g>
     <g id="text_10">
      <text style="font-size: 9px; font-family: 'DejaVu Sans Mono', 'Bitstream Vera Sans Mono', 'Computer Modern Typewriter', 'Andale Mono', 'Nimbus Mono L', 'Courier New', 'Courier', 'Fixed', 'Terminal', monospace; text-anchor: end; fill: #0f172a" x="428.229324" y="468.908252" transform="rotate(-45 428.229324 468.908252)">OPT_SCALED</text>
     </g>
    </g>
    <g id="xtick_11">
     <g id="line2d_11">
      <g>
       <use xlink:href="#m2ed08dc1b6" x="463.363214" y="457.185" style="fill: #0f172a; stroke: #0f172a; stroke-width: 0.8"/>
      </g>
     </g>
     <g id="text_11">
      <text style="font-size: 9px; font-family: 'DejaVu Sans Mono', 'Bitstream Vera Sans Mono', 'Computer Modern Typewriter', 'Andale Mono', 'Nimbus Mono L', 'Courier New', 'Courier', 'Fixed', 'Terminal', monospace; text-anchor: end; fill: #0f172a" x="468.086467" y="468.908252" transform="rotate(-45 468.086467 468.908252)">ORDER_STAT</text>
     </g>
    </g>
    <g id="xtick_12">
     <g id="line2d_12">
      <g>
       <use xlink:href="#m2ed08dc1b6" x="503.220357" y="457.185" style="fill: #0f172a; stroke: #0f172a; stroke-width: 0.8"/>
      </g>
     </g>
     <g id="text_12">
      <text style="font-size: 9px; font-family: 'DejaVu Sans Mono', 'Bitstream Vera Sans Mono', 'Computer Modern Typewriter', 'Andale Mono', 'Nimbus Mono L', 'Courier New', 'Courier', 'Fixed', 'Terminal', monospace; text-anchor: end; fill: #0f172a" x="507.943609" y="468.908252" transform="rotate(-45 507.943609 468.908252)">MLE_EFFICIENCY</text>
     </g>
    </g>
    <g id="xtick_13">
     <g id="line2d_13">
      <g>
       <use xlink:href="#m2ed08dc1b6" x="543.0775" y="457.185" style="fill: #0f172a; stroke: #0f172a; stroke-width: 0.8"/>
      </g>
     </g>
     <g id="text_13">
      <text style="font-size: 9px; font-family: 'DejaVu Sans Mono', 'Bitstream Vera Sans Mono', 'Computer Modern Typewriter', 'Andale Mono', 'Nimbus Mono L', 'Courier New', 'Courier', 'Fixed', 'Terminal', monospace; text-anchor: end; fill: #0f172a" x="547.946925" y="469.054425" transform="rotate(-45 547.946925 469.054425)">GAMBLER</text>
     </g>
    </g>
    <g id="xtick_14">
     <g id="line2d_14">
      <g>
       <use xlink:href="#m2ed08dc1b6" x="582.934643" y="457.185" style="fill: #0f172a; stroke: #0f172a; stroke-width: 0.8"/>
      </g>
     </g>
     <g id="text_14">
      <text style="font-size: 9px; font-family: 'DejaVu Sans Mono', 'Bitstream Vera Sans Mono', 'Computer Modern Typewriter', 'Andale Mono', 'Nimbus Mono L', 'Courier New', 'Courier', 'Fixed', 'Terminal', monospace; text-anchor: end; fill: #0f172a" x="587.62707" y="468.877427" transform="rotate(-45 587.62707 468.877427)">MLE_MAP</text>
     </g>
    </g>
    <g id="xtick_15">
     <g id="line2d_15">
      <g>
       <use xlink:href="#m2ed08dc1b6" x="622.791786" y="457.185" style="fill: #0f172a; stroke: #0f172a; stroke-width: 0.8"/>
      </g>
     </g>
     <g id="text_15">
      <text style="font-size: 9px; font-family: 'DejaVu Sans Mono', 'Bitstream Vera Sans Mono', 'Computer Modern Typewriter', 'Andale Mono', 'Nimbus Mono L', 'Courier New', 'Courier', 'Fixed', 'Terminal', monospace; text-anchor: end; fill: #0f172a" x="627.515038" y="468.908252" transform="rotate(-45 627.515038 468.908252)">CI_CREDIBLE</text>
     </g>
    </g>
    <g id="xtick_16">
     <g id="line2d_16">
      <g>
       <use xlink:href="#m2ed08dc1b6" x="662.648929" y="457.185" style="fill: #0f172a; stroke: #0f172a; stroke-width: 0.8"/>
      </g>
     </g>
     <g id="text_16">
      <text style="font-size: 9px; font-family: 'DejaVu Sans Mono', 'Bitstream Vera Sans Mono', 'Computer Modern Typewriter', 'Andale Mono', 'Nimbus Mono L', 'Courier New', 'Courier', 'Fixed', 'Terminal', monospace; text-anchor: end; fill: #0f172a" x="667.518353" y="469.054425" transform="rotate(-45 667.518353 469.054425)">CONCEPTUAL</text>
     </g>
    </g>
    <g id="xtick_17">
     <g id="line2d_17">
      <g>
       <use xlink:href="#m2ed08dc1b6" x="702.506071" y="457.185" style="fill: #0f172a; stroke: #0f172a; stroke-width: 0.8"/>
      </g>
     </g>
     <g id="text_17">
      <text style="font-size: 9px; font-family: 'DejaVu Sans Mono', 'Bitstream Vera Sans Mono', 'Computer Modern Typewriter', 'Andale Mono', 'Nimbus Mono L', 'Courier New', 'Courier', 'Fixed', 'Terminal', monospace; text-anchor: end; fill: #0f172a" x="707.375496" y="469.054425" transform="rotate(-45 707.375496 469.054425)">PPC</text>
     </g>
    </g>
    <g id="xtick_18">
     <g id="line2d_18">
      <g>
       <use xlink:href="#m2ed08dc1b6" x="742.363214" y="457.185" style="fill: #0f172a; stroke: #0f172a; stroke-width: 0.8"/>
      </g>
     </g>
     <g id="text_18">
      <text style="font-size: 9px; font-family: 'DejaVu Sans Mono', 'Bitstream Vera Sans Mono', 'Computer Modern Typewriter', 'Andale Mono', 'Nimbus Mono L', 'Courier New', 'Courier', 'Fixed', 'Terminal', monospace; text-anchor: end; fill: #0f172a" x="747.086467" y="468.908252" transform="rotate(-45 747.086467 468.908252)">RANGE_DIST</text>
     </g>
    </g>
   </g>
   <g id="matplotlib.axis_2">
    <g id="ytick_1">
     <g id="line2d_19">
      <defs>
       <path id="meba8421e40" d="M 0 0 
L -3.5 0 
" style="stroke: #0f172a; stroke-width: 0.8"/>
      </defs>
      <g>
       <use xlink:href="#meba8421e40" x="40.8775" y="457.185" style="fill: #0f172a; stroke: #0f172a; stroke-width: 0.8"/>
      </g>
     </g>
     <g id="text_19">
      <text style="font-size: 12px; font-family: 'Helvetica', 'Arial', 'DejaVu Sans', sans-serif; text-anchor: end; fill: #0f172a" x="33.8775" y="461.489062" transform="rotate(-0 33.8775 461.489062)">0</text>
     </g>
    </g>
    <g id="ytick_2">
     <g id="line2d_20">
      <g>
       <use xlink:href="#meba8421e40" x="40.8775" y="384.871957" style="fill: #0f172a; stroke: #0f172a; stroke-width: 0.8"/>
      </g>
     </g>
     <g id="text_20">
      <text style="font-size: 12px; font-family: 'Helvetica', 'Arial', 'DejaVu Sans', sans-serif; text-anchor: end; fill: #0f172a" x="33.8775" y="389.176019" transform="rotate(-0 33.8775 389.176019)">5</text>
     </g>
    </g>
    <g id="ytick_3">
     <g id="line2d_21">
      <g>
       <use xlink:href="#meba8421e40" x="40.8775" y="312.558913" style="fill: #0f172a; stroke: #0f172a; stroke-width: 0.8"/>
      </g>
     </g>
     <g id="text_21">
      <text style="font-size: 12px; font-family: 'Helvetica', 'Arial', 'DejaVu Sans', sans-serif; text-anchor: end; fill: #0f172a" x="33.8775" y="316.862976" transform="rotate(-0 33.8775 316.862976)">10</text>
     </g>
    </g>
    <g id="ytick_4">
     <g id="line2d_22">
      <g>
       <use xlink:href="#meba8421e40" x="40.8775" y="240.24587" style="fill: #0f172a; stroke: #0f172a; stroke-width: 0.8"/>
      </g>
     </g>
     <g id="text_22">
      <text style="font-size: 12px; font-family: 'Helvetica', 'Arial', 'DejaVu Sans', sans-serif; text-anchor: end; fill: #0f172a" x="33.8775" y="244.549932" transform="rotate(-0 33.8775 244.549932)">15</text>
     </g>
    </g>
    <g id="ytick_5">
     <g id="line2d_23">
      <g>
       <use xlink:href="#meba8421e40" x="40.8775" y="167.932826" style="fill: #0f172a; stroke: #0f172a; stroke-width: 0.8"/>
      </g>
     </g>
     <g id="text_23">
      <text style="font-size: 12px; font-family: 'Helvetica', 'Arial', 'DejaVu Sans', sans-serif; text-anchor: end; fill: #0f172a" x="33.8775" y="172.236889" transform="rotate(-0 33.8775 172.236889)">20</text>
     </g>
    </g>
    <g id="ytick_6">
     <g id="line2d_24">
      <g>
       <use xlink:href="#meba8421e40" x="40.8775" y="95.619783" style="fill: #0f172a; stroke: #0f172a; stroke-width: 0.8"/>
      </g>
     </g>
     <g id="text_24">
      <text style="font-size: 12px; font-family: 'Helvetica', 'Arial', 'DejaVu Sans', sans-serif; text-anchor: end; fill: #0f172a" x="33.8775" y="99.923845" transform="rotate(-0 33.8775 99.923845)">25</text>
     </g>
    </g>
    <g id="text_25">
     <text style="font-size: 10px; font-family: 'Helvetica', 'Arial', 'DejaVu Sans', sans-serif; text-anchor: middle; fill: #334155" x="14.446875" y="249.285" transform="rotate(-90 14.446875 249.285)">Failure count (stacked)</text>
    </g>
   </g>
   <g id="patch_3">
    <path d="M 49.2475 457.185 
L 80.336071 457.185 
L 80.336071 211.320652 
L 49.2475 211.320652 
z
" clip-path="url(#pb00d58fe7e)" style="fill: #d97706"/>
   </g>
   <g id="patch_4">
    <path d="M 89.104643 457.185 
L 120.193214 457.185 
L 120.193214 370.409348 
L 89.104643 370.409348 
z
" clip-path="url(#pb00d58fe7e)" style="fill: #d97706"/>
   </g>
   <g id="patch_5">
    <path d="M 128.961786 457.185 
L 160.050357 457.185 
L 160.050357 428.259783 
L 128.961786 428.259783 
z
" clip-path="url(#pb00d58fe7e)" style="fill: #d97706"/>
   </g>
   <g id="patch_6">
    <path d="M 168.818929 457.185 
L 199.9075 457.185 
L 199.9075 283.633696 
L 168.818929 283.633696 
z
" clip-path="url(#pb00d58fe7e)" style="fill: #d97706"/>
   </g>
   <g id="patch_7">
    <path d="M 208.676071 457.185 
L 239.764643 457.185 
L 239.764643 384.871957 
L 208.676071 384.871957 
z
" clip-path="url(#pb00d58fe7e)" style="fill: #d97706"/>
   </g>
   <g id="patch_8">
    <path d="M 248.533214 457.185 
L 279.621786 457.185 
L 279.621786 355.946739 
L 248.533214 355.946739 
z
" clip-path="url(#pb00d58fe7e)" style="fill: #d97706"/>
   </g>
   <g id="patch_9">
    <path d="M 288.390357 457.185 
L 319.478929 457.185 
L 319.478929 341.48413 
L 288.390357 341.48413 
z
" clip-path="url(#pb00d58fe7e)" style="fill: #d97706"/>
   </g>
   <g id="patch_10">
    <path d="M 328.2475 457.185 
L 359.336071 457.185 
L 359.336071 399.334565 
L 328.2475 399.334565 
z
" clip-path="url(#pb00d58fe7e)" style="fill: #d97706"/>
   </g>
   <g id="patch_11">
    <path d="M 368.104643 457.185 
L 399.193214 457.185 
L 399.193214 428.259783 
L 368.104643 428.259783 
z
" clip-path="url(#pb00d58fe7e)" style="fill: #d97706"/>
   </g>
   <g id="patch_12">
    <path d="M 407.961786 457.185 
L 439.050357 457.185 
L 439.050357 457.185 
L 407.961786 457.185 
z
" clip-path="url(#pb00d58fe7e)" style="fill: #d97706"/>
   </g>
   <g id="patch_13">
    <path d="M 447.818929 457.185 
L 478.9075 457.185 
L 478.9075 442.722391 
L 447.818929 442.722391 
z
" clip-path="url(#pb00d58fe7e)" style="fill: #d97706"/>
   </g>
   <g id="patch_14">
    <path d="M 487.676071 457.185 
L 518.764643 457.185 
L 518.764643 442.722391 
L 487.676071 442.722391 
z
" clip-path="url(#pb00d58fe7e)" style="fill: #d97706"/>
   </g>
   <g id="patch_15">
    <path d="M 527.533214 457.185 
L 558.621786 457.185 
L 558.621786 457.185 
L 527.533214 457.185 
z
" clip-path="url(#pb00d58fe7e)" style="fill: #d97706"/>
   </g>
   <g id="patch_16">
    <path d="M 567.390357 457.185 
L 598.478929 457.185 
L 598.478929 442.722391 
L 567.390357 442.722391 
z
" clip-path="url(#pb00d58fe7e)" style="fill: #d97706"/>
   </g>
   <g id="patch_17">
    <path d="M 607.2475 457.185 
L 638.336071 457.185 
L 638.336071 457.185 
L 607.2475 457.185 
z
" clip-path="url(#pb00d58fe7e)" style="fill: #d97706"/>
   </g>
   <g id="patch_18">
    <path d="M 647.104643 457.185 
L 678.193214 457.185 
L 678.193214 457.185 
L 647.104643 457.185 
z
" clip-path="url(#pb00d58fe7e)" style="fill: #d97706"/>
   </g>
   <g id="patch_19">
    <path d="M 686.961786 457.185 
L 718.050357 457.185 
L 718.050357 457.185 
L 686.961786 457.185 
z
" clip-path="url(#pb00d58fe7e)" style="fill: #d97706"/>
   </g>
   <g id="patch_20">
    <path d="M 726.818929 457.185 
L 757.9075 457.185 
L 757.9075 442.722391 
L 726.818929 442.722391 
z
" clip-path="url(#pb00d58fe7e)" style="fill: #d97706"/>
   </g>
   <g id="patch_21">
    <path d="M 49.2475 211.320652 
L 80.336071 211.320652 
L 80.336071 182.395435 
L 49.2475 182.395435 
z
" clip-path="url(#pb00d58fe7e)" style="fill: #dc2626"/>
   </g>
   <g id="patch_22">
    <path d="M 89.104643 370.409348 
L 120.193214 370.409348 
L 120.193214 182.395435 
L 89.104643 182.395435 
z
" clip-path="url(#pb00d58fe7e)" style="fill: #dc2626"/>
   </g>
   <g id="patch_23">
    <path d="M 128.961786 428.259783 
L 160.050357 428.259783 
L 160.050357 196.858043 
L 128.961786 196.858043 
z
" clip-path="url(#pb00d58fe7e)" style="fill: #dc2626"/>
   </g>
   <g id="patch_24">
    <path d="M 168.818929 283.633696 
L 199.9075 283.633696 
L 199.9075 283.633696 
L 168.818929 283.633696 
z
" clip-path="url(#pb00d58fe7e)" style="fill: #dc2626"/>
   </g>
   <g id="patch_25">
    <path d="M 208.676071 384.871957 
L 239.764643 384.871957 
L 239.764643 384.871957 
L 208.676071 384.871957 
z
" clip-path="url(#pb00d58fe7e)" style="fill: #dc2626"/>
   </g>
   <g id="patch_26">
    <path d="M 248.533214 355.946739 
L 279.621786 355.946739 
L 279.621786 341.48413 
L 248.533214 341.48413 
z
" clip-path="url(#pb00d58fe7e)" style="fill: #dc2626"/>
   </g>
   <g id="patch_27">
    <path d="M 288.390357 341.48413 
L 319.478929 341.48413 
L 319.478929 341.48413 
L 288.390357 341.48413 
z
" clip-path="url(#pb00d58fe7e)" style="fill: #dc2626"/>
   </g>
   <g id="patch_28">
    <path d="M 328.2475 399.334565 
L 359.336071 399.334565 
L 359.336071 355.946739 
L 328.2475 355.946739 
z
" clip-path="url(#pb00d58fe7e)" style="fill: #dc2626"/>
   </g>
   <g id="patch_29">
    <path d="M 368.104643 428.259783 
L 399.193214 428.259783 
L 399.193214 399.334565 
L 368.104643 399.334565 
z
" clip-path="url(#pb00d58fe7e)" style="fill: #dc2626"/>
   </g>
   <g id="patch_30">
    <path d="M 407.961786 457.185 
L 439.050357 457.185 
L 439.050357 384.871957 
L 407.961786 384.871957 
z
" clip-path="url(#pb00d58fe7e)" style="fill: #dc2626"/>
   </g>
   <g id="patch_31">
    <path d="M 447.818929 442.722391 
L 478.9075 442.722391 
L 478.9075 428.259783 
L 447.818929 428.259783 
z
" clip-path="url(#pb00d58fe7e)" style="fill: #dc2626"/>
   </g>
   <g id="patch_32">
    <path d="M 487.676071 442.722391 
L 518.764643 442.722391 
L 518.764643 428.259783 
L 487.676071 428.259783 
z
" clip-path="url(#pb00d58fe7e)" style="fill: #dc2626"/>
   </g>
   <g id="patch_33">
    <path d="M 527.533214 457.185 
L 558.621786 457.185 
L 558.621786 428.259783 
L 527.533214 428.259783 
z
" clip-path="url(#pb00d58fe7e)" style="fill: #dc2626"/>
   </g>
   <g id="patch_34">
    <path d="M 567.390357 442.722391 
L 598.478929 442.722391 
L 598.478929 428.259783 
L 567.390357 428.259783 
z
" clip-path="url(#pb00d58fe7e)" style="fill: #dc2626"/>
   </g>
   <g id="patch_35">
    <path d="M 607.2475 457.185 
L 638.336071 457.185 
L 638.336071 457.185 
L 607.2475 457.185 
z
" clip-path="url(#pb00d58fe7e)" style="fill: #dc2626"/>
   </g>
   <g id="patch_36">
    <path d="M 647.104643 457.185 
L 678.193214 457.185 
L 678.193214 457.185 
L 647.104643 457.185 
z
" clip-path="url(#pb00d58fe7e)" style="fill: #dc2626"/>
   </g>
   <g id="patch_37">
    <path d="M 686.961786 457.185 
L 718.050357 457.185 
L 718.050357 442.722391 
L 686.961786 442.722391 
z
" clip-path="url(#pb00d58fe7e)" style="fill: #dc2626"/>
   </g>
   <g id="patch_38">
    <path d="M 726.818929 442.722391 
L 757.9075 442.722391 
L 757.9075 442.722391 
L 726.818929 442.722391 
z
" clip-path="url(#pb00d58fe7e)" style="fill: #dc2626"/>
   </g>
   <g id="patch_39">
    <path d="M 49.2475 182.395435 
L 80.336071 182.395435 
L 80.336071 124.545 
L 49.2475 124.545 
z
" clip-path="url(#pb00d58fe7e)" style="fill: #475569"/>
   </g>
   <g id="patch_40">
    <path d="M 89.104643 182.395435 
L 120.193214 182.395435 
L 120.193214 110.082391 
L 89.104643 110.082391 
z
" clip-path="url(#pb00d58fe7e)" style="fill: #475569"/>
   </g>
   <g id="patch_41">
    <path d="M 128.961786 196.858043 
L 160.050357 196.858043 
L 160.050357 196.858043 
L 128.961786 196.858043 
z
" clip-path="url(#pb00d58fe7e)" style="fill: #475569"/>
   </g>
   <g id="patch_42">
    <path d="M 168.818929 283.633696 
L 199.9075 283.633696 
L 199.9075 283.633696 
L 168.818929 283.633696 
z
" clip-path="url(#pb00d58fe7e)" style="fill: #475569"/>
   </g>
   <g id="patch_43">
    <path d="M 208.676071 384.871957 
L 239.764643 384.871957 
L 239.764643 327.021522 
L 208.676071 327.021522 
z
" clip-path="url(#pb00d58fe7e)" style="fill: #475569"/>
   </g>
   <g id="patch_44">
    <path d="M 248.533214 341.48413 
L 279.621786 341.48413 
L 279.621786 327.021522 
L 248.533214 327.021522 
z
" clip-path="url(#pb00d58fe7e)" style="fill: #475569"/>
   </g>
   <g id="patch_45">
    <path d="M 288.390357 341.48413 
L 319.478929 341.48413 
L 319.478929 341.48413 
L 288.390357 341.48413 
z
" clip-path="url(#pb00d58fe7e)" style="fill: #475569"/>
   </g>
   <g id="patch_46">
    <path d="M 328.2475 355.946739 
L 359.336071 355.946739 
L 359.336071 341.48413 
L 328.2475 341.48413 
z
" clip-path="url(#pb00d58fe7e)" style="fill: #475569"/>
   </g>
   <g id="patch_47">
    <path d="M 368.104643 399.334565 
L 399.193214 399.334565 
L 399.193214 370.409348 
L 368.104643 370.409348 
z
" clip-path="url(#pb00d58fe7e)" style="fill: #475569"/>
   </g>
   <g id="patch_48">
    <path d="M 407.961786 384.871957 
L 439.050357 384.871957 
L 439.050357 384.871957 
L 407.961786 384.871957 
z
" clip-path="url(#pb00d58fe7e)" style="fill: #475569"/>
   </g>
   <g id="patch_49">
    <path d="M 447.818929 428.259783 
L 478.9075 428.259783 
L 478.9075 428.259783 
L 447.818929 428.259783 
z
" clip-path="url(#pb00d58fe7e)" style="fill: #475569"/>
   </g>
   <g id="patch_50">
    <path d="M 487.676071 428.259783 
L 518.764643 428.259783 
L 518.764643 428.259783 
L 487.676071 428.259783 
z
" clip-path="url(#pb00d58fe7e)" style="fill: #475569"/>
   </g>
   <g id="patch_51">
    <path d="M 527.533214 428.259783 
L 558.621786 428.259783 
L 558.621786 428.259783 
L 527.533214 428.259783 
z
" clip-path="url(#pb00d58fe7e)" style="fill: #475569"/>
   </g>
   <g id="patch_52">
    <path d="M 567.390357 428.259783 
L 598.478929 428.259783 
L 598.478929 428.259783 
L 567.390357 428.259783 
z
" clip-path="url(#pb00d58fe7e)" style="fill: #475569"/>
   </g>
   <g id="patch_53">
    <path d="M 607.2475 457.185 
L 638.336071 457.185 
L 638.336071 442.722391 
L 607.2475 442.722391 
z
" clip-path="url(#pb00d58fe7e)" style="fill: #475569"/>
   </g>
   <g id="patch_54">
    <path d="M 647.104643 457.185 
L 678.193214 457.185 
L 678.193214 457.185 
L 647.104643 457.185 
z
" clip-path="url(#pb00d58fe7e)" style="fill: #475569"/>
   </g>
   <g id="patch_55">
    <path d="M 686.961786 442.722391 
L 718.050357 442.722391 
L 718.050357 442.722391 
L 686.961786 442.722391 
z
" clip-path="url(#pb00d58fe7e)" style="fill: #475569"/>
   </g>
   <g id="patch_56">
    <path d="M 726.818929 442.722391 
L 757.9075 442.722391 
L 757.9075 442.722391 
L 726.818929 442.722391 
z
" clip-path="url(#pb00d58fe7e)" style="fill: #475569"/>
   </g>
   <g id="patch_57">
    <path d="M 49.2475 124.545 
L 80.336071 124.545 
L 80.336071 95.619783 
L 49.2475 95.619783 
z
" clip-path="url(#pb00d58fe7e)" style="fill: #7c3aed"/>
   </g>
   <g id="patch_58">
    <path d="M 89.104643 110.082391 
L 120.193214 110.082391 
L 120.193214 95.619783 
L 89.104643 95.619783 
z
" clip-path="url(#pb00d58fe7e)" style="fill: #7c3aed"/>
   </g>
   <g id="patch_59">
    <path d="M 128.961786 196.858043 
L 160.050357 196.858043 
L 160.050357 182.395435 
L 128.961786 182.395435 
z
" clip-path="url(#pb00d58fe7e)" style="fill: #7c3aed"/>
   </g>
   <g id="patch_60">
    <path d="M 168.818929 283.633696 
L 199.9075 283.633696 
L 199.9075 269.171087 
L 168.818929 269.171087 
z
" clip-path="url(#pb00d58fe7e)" style="fill: #7c3aed"/>
   </g>
   <g id="patch_61">
    <path d="M 208.676071 327.021522 
L 239.764643 327.021522 
L 239.764643 327.021522 
L 208.676071 327.021522 
z
" clip-path="url(#pb00d58fe7e)" style="fill: #7c3aed"/>
   </g>
   <g id="patch_62">
    <path d="M 248.533214 327.021522 
L 279.621786 327.021522 
L 279.621786 327.021522 
L 248.533214 327.021522 
z
" clip-path="url(#pb00d58fe7e)" style="fill: #7c3aed"/>
   </g>
   <g id="patch_63">
    <path d="M 288.390357 341.48413 
L 319.478929 341.48413 
L 319.478929 341.48413 
L 288.390357 341.48413 
z
" clip-path="url(#pb00d58fe7e)" style="fill: #7c3aed"/>
   </g>
   <g id="patch_64">
    <path d="M 328.2475 341.48413 
L 359.336071 341.48413 
L 359.336071 341.48413 
L 328.2475 341.48413 
z
" clip-path="url(#pb00d58fe7e)" style="fill: #7c3aed"/>
   </g>
   <g id="patch_65">
    <path d="M 368.104643 370.409348 
L 399.193214 370.409348 
L 399.193214 370.409348 
L 368.104643 370.409348 
z
" clip-path="url(#pb00d58fe7e)" style="fill: #7c3aed"/>
   </g>
   <g id="patch_66">
    <path d="M 407.961786 384.871957 
L 439.050357 384.871957 
L 439.050357 370.409348 
L 407.961786 370.409348 
z
" clip-path="url(#pb00d58fe7e)" style="fill: #7c3aed"/>
   </g>
   <g id="patch_67">
    <path d="M 447.818929 428.259783 
L 478.9075 428.259783 
L 478.9075 399.334565 
L 447.818929 399.334565 
z
" clip-path="url(#pb00d58fe7e)" style="fill: #7c3aed"/>
   </g>
   <g id="patch_68">
    <path d="M 487.676071 428.259783 
L 518.764643 428.259783 
L 518.764643 413.797174 
L 487.676071 413.797174 
z
" clip-path="url(#pb00d58fe7e)" style="fill: #7c3aed"/>
   </g>
   <g id="patch_69">
    <path d="M 527.533214 428.259783 
L 558.621786 428.259783 
L 558.621786 428.259783 
L 527.533214 428.259783 
z
" clip-path="url(#pb00d58fe7e)" style="fill: #7c3aed"/>
   </g>
   <g id="patch_70">
    <path d="M 567.390357 428.259783 
L 598.478929 428.259783 
L 598.478929 428.259783 
L 567.390357 428.259783 
z
" clip-path="url(#pb00d58fe7e)" style="fill: #7c3aed"/>
   </g>
   <g id="patch_71">
    <path d="M 607.2475 442.722391 
L 638.336071 442.722391 
L 638.336071 442.722391 
L 607.2475 442.722391 
z
" clip-path="url(#pb00d58fe7e)" style="fill: #7c3aed"/>
   </g>
   <g id="patch_72">
    <path d="M 647.104643 457.185 
L 678.193214 457.185 
L 678.193214 442.722391 
L 647.104643 442.722391 
z
" clip-path="url(#pb00d58fe7e)" style="fill: #7c3aed"/>
   </g>
   <g id="patch_73">
    <path d="M 686.961786 442.722391 
L 718.050357 442.722391 
L 718.050357 442.722391 
L 686.961786 442.722391 
z
" clip-path="url(#pb00d58fe7e)" style="fill: #7c3aed"/>
   </g>
   <g id="patch_74">
    <path d="M 726.818929 442.722391 
L 757.9075 442.722391 
L 757.9075 442.722391 
L 726.818929 442.722391 
z
" clip-path="url(#pb00d58fe7e)" style="fill: #7c3aed"/>
   </g>
   <g id="patch_75">
    <path d="M 40.8775 457.185 
L 40.8775 41.385 
" style="fill: none; opacity: 0.3; stroke: #475569; stroke-width: 0.8; stroke-linejoin: miter; stroke-linecap: square"/>
   </g>
   <g id="patch_76">
    <path d="M 40.8775 457.185 
L 766.2775 457.185 
" style="fill: none; opacity: 0.3; stroke: #475569; stroke-width: 0.8; stroke-linejoin: miter; stroke-linecap: square"/>
   </g>
   <g id="text_26">
    <text style="font-weight: 700; font-size: 10px; font-family: 'Helvetica', 'Arial', 'DejaVu Sans', sans-serif; text-anchor: middle; fill: #0f172a" x="64.791786" y="86.304103" transform="rotate(-0 64.791786 86.304103)">100%</text>
   </g>
   <g id="text_27">
    <text style="font-weight: 700; font-size: 10px; font-family: 'Helvetica', 'Arial', 'DejaVu Sans', sans-serif; text-anchor: middle; fill: #0f172a" x="104.648929" y="86.304103" transform="rotate(-0 104.648929 86.304103)">100%</text>
   </g>
   <g id="text_28">
    <text style="font-weight: 700; font-size: 10px; font-family: 'Helvetica', 'Arial', 'DejaVu Sans', sans-serif; text-anchor: middle; fill: #0f172a" x="144.506071" y="173.079755" transform="rotate(-0 144.506071 173.079755)">76%</text>
   </g>
   <g id="text_29">
    <text style="font-weight: 700; font-size: 10px; font-family: 'Helvetica', 'Arial', 'DejaVu Sans', sans-serif; text-anchor: middle; fill: #0f172a" x="184.363214" y="259.855408" transform="rotate(-0 184.363214 259.855408)">52%</text>
   </g>
   <g id="text_30">
    <text style="font-weight: 700; font-size: 10px; font-family: 'Helvetica', 'Arial', 'DejaVu Sans', sans-serif; text-anchor: middle; fill: #0f172a" x="224.220357" y="317.705842" transform="rotate(-0 224.220357 317.705842)">36%</text>
   </g>
   <g id="text_31">
    <text style="font-weight: 700; font-size: 10px; font-family: 'Helvetica', 'Arial', 'DejaVu Sans', sans-serif; text-anchor: middle; fill: #0f172a" x="264.0775" y="317.705842" transform="rotate(-0 264.0775 317.705842)">36%</text>
   </g>
   <g id="text_32">
    <text style="font-weight: 700; font-size: 10px; font-family: 'Helvetica', 'Arial', 'DejaVu Sans', sans-serif; text-anchor: middle; fill: #0f172a" x="303.934643" y="332.168451" transform="rotate(-0 303.934643 332.168451)">32%</text>
   </g>
   <g id="text_33">
    <text style="font-weight: 700; font-size: 10px; font-family: 'Helvetica', 'Arial', 'DejaVu Sans', sans-serif; text-anchor: middle; fill: #0f172a" x="343.791786" y="332.168451" transform="rotate(-0 343.791786 332.168451)">53%</text>
   </g>
   <g id="text_34">
    <text style="font-weight: 700; font-size: 10px; font-family: 'Helvetica', 'Arial', 'DejaVu Sans', sans-serif; text-anchor: middle; fill: #0f172a" x="383.648929" y="361.093668" transform="rotate(-0 383.648929 361.093668)">24%</text>
   </g>
   <g id="text_35">
    <text style="font-weight: 700; font-size: 10px; font-family: 'Helvetica', 'Arial', 'DejaVu Sans', sans-serif; text-anchor: middle; fill: #0f172a" x="423.506071" y="361.093668" transform="rotate(-0 423.506071 361.093668)">24%</text>
   </g>
   <g id="text_36">
    <text style="font-weight: 700; font-size: 10px; font-family: 'Helvetica', 'Arial', 'DejaVu Sans', sans-serif; text-anchor: middle; fill: #0f172a" x="463.363214" y="390.018886" transform="rotate(-0 463.363214 390.018886)">16%</text>
   </g>
   <g id="text_37">
    <text style="font-weight: 700; font-size: 10px; font-family: 'Helvetica', 'Arial', 'DejaVu Sans', sans-serif; text-anchor: middle; fill: #0f172a" x="503.220357" y="404.481495" transform="rotate(-0 503.220357 404.481495)">20%</text>
   </g>
   <g id="text_38">
    <text style="font-weight: 700; font-size: 10px; font-family: 'Helvetica', 'Arial', 'DejaVu Sans', sans-serif; text-anchor: middle; fill: #0f172a" x="543.0775" y="418.944103" transform="rotate(-0 543.0775 418.944103)">13%</text>
   </g>
   <g id="text_39">
    <text style="font-weight: 700; font-size: 10px; font-family: 'Helvetica', 'Arial', 'DejaVu Sans', sans-serif; text-anchor: middle; fill: #0f172a" x="582.934643" y="418.944103" transform="rotate(-0 582.934643 418.944103)">8%</text>
   </g>
   <g id="text_40">
    <text style="font-weight: 700; font-size: 10px; font-family: 'Helvetica', 'Arial', 'DejaVu Sans', sans-serif; text-anchor: middle; fill: #0f172a" x="622.791786" y="433.406712" transform="rotate(-0 622.791786 433.406712)">4%</text>
   </g>
   <g id="text_41">
    <text style="font-weight: 700; font-size: 10px; font-family: 'Helvetica', 'Arial', 'DejaVu Sans', sans-serif; text-anchor: middle; fill: #0f172a" x="662.648929" y="433.406712" transform="rotate(-0 662.648929 433.406712)">2%</text>
   </g>
   <g id="text_42">
    <text style="font-weight: 700; font-size: 10px; font-family: 'Helvetica', 'Arial', 'DejaVu Sans', sans-serif; text-anchor: middle; fill: #0f172a" x="702.506071" y="433.406712" transform="rotate(-0 702.506071 433.406712)">4%</text>
   </g>
   <g id="text_43">
    <text style="font-weight: 700; font-size: 10px; font-family: 'Helvetica', 'Arial', 'DejaVu Sans', sans-serif; text-anchor: middle; fill: #0f172a" x="742.363214" y="433.406712" transform="rotate(-0 742.363214 433.406712)">7%</text>
   </g>
   <g id="text_44">
    <text style="font-weight: 700; font-size: 14px; font-family: 'Helvetica', 'Arial', 'DejaVu Sans', sans-serif; text-anchor: start; fill: #0f172a" x="40.8775" y="17.385" transform="rotate(-0 40.8775 17.385)">Failure rate by task type · sorted by total failures</text>
   </g>
   <g id="legend_1">
    <g id="patch_77">
     <path d="M 166.297812 724.615 
L 180.297812 724.615 
L 180.297812 715.665 
L 166.297812 715.665 
z
" style="fill: #d97706"/>
    </g>
    <g id="text_45">
     <text style="font-size: 10px; font-family: 'Helvetica', 'Arial', 'DejaVu Sans', sans-serif; text-anchor: start; fill: #0f172a" x="186.297812" y="723.565" transform="rotate(-0 186.297812 723.565)">Assumption Violation</text>
    </g>
    <g id="patch_78">
     <path d="M 299.6775 724.615 
L 313.6775 724.615 
L 313.6775 715.665 
L 299.6775 715.665 
z
" style="fill: #dc2626"/>
    </g>
    <g id="text_46">
     <text style="font-size: 10px; font-family: 'Helvetica', 'Arial', 'DejaVu Sans', sans-serif; text-anchor: start; fill: #0f172a" x="319.6775" y="723.565" transform="rotate(-0 319.6775 723.565)">Mathematical Error</text>
    </g>
    <g id="patch_79">
     <path d="M 424.14 724.615 
L 438.14 724.615 
L 438.14 715.665 
L 424.14 715.665 
z
" style="fill: #475569"/>
    </g>
    <g id="text_47">
     <text style="font-size: 10px; font-family: 'Helvetica', 'Arial', 'DejaVu Sans', sans-serif; text-anchor: start; fill: #0f172a" x="444.14" y="723.565" transform="rotate(-0 444.14 723.565)">Formatting Failure</text>
    </g>
    <g id="patch_80">
     <path d="M 545.27125 724.615 
L 559.27125 724.615 
L 559.27125 715.665 
L 545.27125 715.665 
z
" style="fill: #7c3aed"/>
    </g>
    <g id="text_48">
     <text style="font-size: 10px; font-family: 'Helvetica', 'Arial', 'DejaVu Sans', sans-serif; text-anchor: start; fill: #0f172a" x="565.27125" y="723.565" transform="rotate(-0 565.27125 723.565)">Conceptual Error</text>
    </g>
   </g>
  </g>
 </g>
 <defs>
  <clipPath id="pb00d58fe7e">
   <rect x="40.8775" y="41.385" width="725.4" height="415.8"/>
  </clipPath>
 </defs>
</svg>
