<?xml version="1.0" encoding="utf-8" standalone="no"?>
<!DOCTYPE svg PUBLIC "-//W3C//DTD SVG 1.1//EN"
  "http://www.w3.org/Graphics/SVG/1.1/DTD/svg11.dtd">
<svg xmlns:xlink="http://www.w3.org/1999/xlink" width="899.8375pt" height="638.6975pt" viewBox="0 0 899.8375 638.6975" xmlns="http://www.w3.org/2000/svg" version="1.1">
 <metadata>
  <rdf:RDF xmlns:dc="http://purl.org/dc/elements/1.1/" xmlns:cc="http://creativecommons.org/ns#" xmlns:rdf="http://www.w3.org/1999/02/22-rdf-syntax-ns#">
   <cc:Work>
    <dc:type rdf:resource="http://purl.org/dc/dcmitype/StillImage"/>
    <dc:date>2026-05-06T13:44:03.748039</dc:date>
    <dc:format>image/svg+xml</dc:format>
    <dc:creator>
     <cc:Agent>
      <dc:title>Matplotlib v3.10.8, https://matplotlib.org/</dc:title>
     </cc:Agent>
    </dc:creator>
   </cc:Work>
  </rdf:RDF>
 </metadata>
 <defs>
  <style type="text/css">*{stroke-linejoin: round; stroke-linecap: butt}</style>
 </defs>
 <g id="figure_1">
  <g id="patch_1">
   <path d="M 0 638.6975 
L 899.8375 638.6975 
L 899.8375 0 
L 0 0 
z
" style="fill: #ffffff"/>
  </g>
  <g id="axes_1">
   <g id="patch_2">
    <path d="M 40.8775 494.985 
L 892.6375 494.985 
L 892.6375 41.385 
L 40.8775 41.385 
z
" style="fill: #ffffff"/>
   </g>
   <g id="matplotlib.axis_1">
    <g id="xtick_1">
     <g id="line2d_1">
      <defs>
       <path id="mf10b925aa1" d="M 0 0 
L 0 3.5 
" style="stroke: #0f172a; stroke-width: 0.8"/>
      </defs>
      <g>
       <use xlink:href="#mf10b925aa1" x="68.9575" y="494.985" style="fill: #0f172a; stroke: #0f172a; stroke-width: 0.8"/>
      </g>
     </g>
     <g id="text_1">
      <text style="font-size: 9px; font-family: 'DejaVu Sans Mono', 'Bitstream Vera Sans Mono', 'Computer Modern Typewriter', 'Andale Mono', 'Nimbus Mono L', 'Courier New', 'Courier', 'Fixed', 'Terminal', monospace; text-anchor: end; fill: #0f172a" x="73.680752" y="506.708252" transform="rotate(-45 73.680752 506.708252)">BAYES_REG</text>
     </g>
    </g>
    <g id="xtick_2">
     <g id="line2d_2">
      <g>
       <use xlink:href="#mf10b925aa1" x="115.7575" y="494.985" style="fill: #0f172a; stroke: #0f172a; stroke-width: 0.8"/>
      </g>
     </g>
     <g id="text_2">
      <text style="font-size: 9px; font-family: 'DejaVu Sans Mono', 'Bitstream Vera Sans Mono', 'Computer Modern Typewriter', 'Andale Mono', 'Nimbus Mono L', 'Courier New', 'Courier', 'Fixed', 'Terminal', monospace; text-anchor: end; fill: #0f172a" x="120.626925" y="506.854425" transform="rotate(-45 120.626925 506.854425)">REGRESSION</text>
     </g>
    </g>
    <g id="xtick_3">
     <g id="line2d_3">
      <g>
       <use xlink:href="#mf10b925aa1" x="162.5575" y="494.985" style="fill: #0f172a; stroke: #0f172a; stroke-width: 0.8"/>
      </g>
     </g>
     <g id="text_3">
      <text style="font-size: 9px; font-family: 'DejaVu Sans Mono', 'Bitstream Vera Sans Mono', 'Computer Modern Typewriter', 'Andale Mono', 'Nimbus Mono L', 'Courier New', 'Courier', 'Fixed', 'Terminal', monospace; text-anchor: end; fill: #0f172a" x="167.280752" y="506.708252" transform="rotate(-45 167.280752 506.708252)">BOX_MULLER</text>
     </g>
    </g>
    <g id="xtick_4">
     <g id="line2d_4">
      <g>
       <use xlink:href="#mf10b925aa1" x="209.3575" y="494.985" style="fill: #0f172a; stroke: #0f172a; stroke-width: 0.8"/>
      </g>
     </g>
     <g id="text_4">
      <text style="font-size: 9px; font-family: 'DejaVu Sans Mono', 'Bitstream Vera Sans Mono', 'Computer Modern Typewriter', 'Andale Mono', 'Nimbus Mono L', 'Courier New', 'Courier', 'Fixed', 'Terminal', monospace; text-anchor: end; fill: #0f172a" x="214.080752" y="506.708252" transform="rotate(-45 214.080752 506.708252)">FISHER_INFO</text>
     </g>
    </g>
    <g id="xtick_5">
     <g id="line2d_5">
      <g>
       <use xlink:href="#mf10b925aa1" x="256.1575" y="494.985" style="fill: #0f172a; stroke: #0f172a; stroke-width: 0.8"/>
      </g>
     </g>
     <g id="text_5">
      <text style="font-size: 9px; font-family: 'DejaVu Sans Mono', 'Bitstream Vera Sans Mono', 'Computer Modern Typewriter', 'Andale Mono', 'Nimbus Mono L', 'Courier New', 'Courier', 'Fixed', 'Terminal', monospace; text-anchor: end; fill: #0f172a" x="260.880752" y="506.708252" transform="rotate(-45 260.880752 506.708252)">BAYES_FACTOR</text>
     </g>
    </g>
    <g id="xtick_6">
     <g id="line2d_6">
      <g>
       <use xlink:href="#mf10b925aa1" x="302.9575" y="494.985" style="fill: #0f172a; stroke: #0f172a; stroke-width: 0.8"/>
      </g>
     </g>
     <g id="text_6">
      <text style="font-size: 9px; font-family: 'DejaVu Sans Mono', 'Bitstream Vera Sans Mono', 'Computer Modern Typewriter', 'Andale Mono', 'Nimbus Mono L', 'Courier New', 'Courier', 'Fixed', 'Terminal', monospace; text-anchor: end; fill: #0f172a" x="307.680752" y="506.708252" transform="rotate(-45 307.680752 506.708252)">LOG_ML</text>
     </g>
    </g>
    <g id="xtick_7">
     <g id="line2d_7">
      <g>
       <use xlink:href="#mf10b925aa1" x="349.7575" y="494.985" style="fill: #0f172a; stroke: #0f172a; stroke-width: 0.8"/>
      </g>
     </g>
     <g id="text_7">
      <text style="font-size: 9px; font-family: 'DejaVu Sans Mono', 'Bitstream Vera Sans Mono', 'Computer Modern Typewriter', 'Andale Mono', 'Nimbus Mono L', 'Courier New', 'Courier', 'Fixed', 'Terminal', monospace; text-anchor: end; fill: #0f172a" x="354.480752" y="506.708252" transform="rotate(-45 354.480752 506.708252)">MSE_COMPARE</text>
     </g>
    </g>
    <g id="xtick_8">
     <g id="line2d_8">
      <g>
       <use xlink:href="#mf10b925aa1" x="396.5575" y="494.985" style="fill: #0f172a; stroke: #0f172a; stroke-width: 0.8"/>
      </g>
     </g>
     <g id="text_8">
      <text style="font-size: 9px; font-family: 'DejaVu Sans Mono', 'Bitstream Vera Sans Mono', 'Computer Modern Typewriter', 'Andale Mono', 'Nimbus Mono L', 'Courier New', 'Courier', 'Fixed', 'Terminal', monospace; text-anchor: end; fill: #0f172a" x="401.426925" y="506.854425" transform="rotate(-45 401.426925 506.854425)">STATIONARY</text>
     </g>
    </g>
    <g id="xtick_9">
     <g id="line2d_9">
      <g>
       <use xlink:href="#mf10b925aa1" x="443.3575" y="494.985" style="fill: #0f172a; stroke: #0f172a; stroke-width: 0.8"/>
      </g>
     </g>
     <g id="text_9">
      <text style="font-size: 9px; font-family: 'DejaVu Sans Mono', 'Bitstream Vera Sans Mono', 'Computer Modern Typewriter', 'Andale Mono', 'Nimbus Mono L', 'Courier New', 'Courier', 'Fixed', 'Terminal', monospace; text-anchor: end; fill: #0f172a" x="448.226925" y="506.854425" transform="rotate(-45 448.226925 506.854425)">MARKOV</text>
     </g>
    </g>
    <g id="xtick_10">
     <g id="line2d_10">
      <g>
       <use xlink:href="#mf10b925aa1" x="490.1575" y="494.985" style="fill: #0f172a; stroke: #0f172a; stroke-width: 0.8"/>
      </g>
     </g>
     <g id="text_10">
      <text style="font-size: 9px; font-family: 'DejaVu Sans Mono', 'Bitstream Vera Sans Mono', 'Computer Modern Typewriter', 'Andale Mono', 'Nimbus Mono L', 'Courier New', 'Courier', 'Fixed', 'Terminal', monospace; text-anchor: end; fill: #0f172a" x="494.880752" y="506.708252" transform="rotate(-45 494.880752 506.708252)">OPT_SCALED</text>
     </g>
    </g>
    <g id="xtick_11">
     <g id="line2d_11">
      <g>
       <use xlink:href="#mf10b925aa1" x="536.9575" y="494.985" style="fill: #0f172a; stroke: #0f172a; stroke-width: 0.8"/>
      </g>
     </g>
     <g id="text_11">
      <text style="font-size: 9px; font-family: 'DejaVu Sans Mono', 'Bitstream Vera Sans Mono', 'Computer Modern Typewriter', 'Andale Mono', 'Nimbus Mono L', 'Courier New', 'Courier', 'Fixed', 'Terminal', monospace; text-anchor: end; fill: #0f172a" x="541.680752" y="506.708252" transform="rotate(-45 541.680752 506.708252)">ORDER_STAT</text>
     </g>
    </g>
    <g id="xtick_12">
     <g id="line2d_12">
      <g>
       <use xlink:href="#mf10b925aa1" x="583.7575" y="494.985" style="fill: #0f172a; stroke: #0f172a; stroke-width: 0.8"/>
      </g>
     </g>
     <g id="text_12">
      <text style="font-size: 9px; font-family: 'DejaVu Sans Mono', 'Bitstream Vera Sans Mono', 'Computer Modern Typewriter', 'Andale Mono', 'Nimbus Mono L', 'Courier New', 'Courier', 'Fixed', 'Terminal', monospace; text-anchor: end; fill: #0f172a" x="588.480752" y="506.708252" transform="rotate(-45 588.480752 506.708252)">MLE_EFFICIENCY</text>
     </g>
    </g>
    <g id="xtick_13">
     <g id="line2d_13">
      <g>
       <use xlink:href="#mf10b925aa1" x="630.5575" y="494.985" style="fill: #0f172a; stroke: #0f172a; stroke-width: 0.8"/>
      </g>
     </g>
     <g id="text_13">
      <text style="font-size: 9px; font-family: 'DejaVu Sans Mono', 'Bitstream Vera Sans Mono', 'Computer Modern Typewriter', 'Andale Mono', 'Nimbus Mono L', 'Courier New', 'Courier', 'Fixed', 'Terminal', monospace; text-anchor: end; fill: #0f172a" x="635.426925" y="506.854425" transform="rotate(-45 635.426925 506.854425)">GAMBLER</text>
     </g>
    </g>
    <g id="xtick_14">
     <g id="line2d_14">
      <g>
       <use xlink:href="#mf10b925aa1" x="677.3575" y="494.985" style="fill: #0f172a; stroke: #0f172a; stroke-width: 0.8"/>
      </g>
     </g>
     <g id="text_14">
      <text style="font-size: 9px; font-family: 'DejaVu Sans Mono', 'Bitstream Vera Sans Mono', 'Computer Modern Typewriter', 'Andale Mono', 'Nimbus Mono L', 'Courier New', 'Courier', 'Fixed', 'Terminal', monospace; text-anchor: end; fill: #0f172a" x="682.049927" y="506.677427" transform="rotate(-45 682.049927 506.677427)">MLE_MAP</text>
     </g>
    </g>
    <g id="xtick_15">
     <g id="line2d_15">
      <g>
       <use xlink:href="#mf10b925aa1" x="724.1575" y="494.985" style="fill: #0f172a; stroke: #0f172a; stroke-width: 0.8"/>
      </g>
     </g>
     <g id="text_15">
      <text style="font-size: 9px; font-family: 'DejaVu Sans Mono', 'Bitstream Vera Sans Mono', 'Computer Modern Typewriter', 'Andale Mono', 'Nimbus Mono L', 'Courier New', 'Courier', 'Fixed', 'Terminal', monospace; text-anchor: end; fill: #0f172a" x="728.880752" y="506.708252" transform="rotate(-45 728.880752 506.708252)">CI_CREDIBLE</text>
     </g>
    </g>
    <g id="xtick_16">
     <g id="line2d_16">
      <g>
       <use xlink:href="#mf10b925aa1" x="770.9575" y="494.985" style="fill: #0f172a; stroke: #0f172a; stroke-width: 0.8"/>
      </g>
     </g>
     <g id="text_16">
      <text style="font-size: 9px; font-family: 'DejaVu Sans Mono', 'Bitstream Vera Sans Mono', 'Computer Modern Typewriter', 'Andale Mono', 'Nimbus Mono L', 'Courier New', 'Courier', 'Fixed', 'Terminal', monospace; text-anchor: end; fill: #0f172a" x="775.826925" y="506.854425" transform="rotate(-45 775.826925 506.854425)">CONCEPTUAL</text>
     </g>
    </g>
    <g id="xtick_17">
     <g id="line2d_17">
      <g>
       <use xlink:href="#mf10b925aa1" x="817.7575" y="494.985" style="fill: #0f172a; stroke: #0f172a; stroke-width: 0.8"/>
      </g>
     </g>
     <g id="text_17">
      <text style="font-size: 9px; font-family: 'DejaVu Sans Mono', 'Bitstream Vera Sans Mono', 'Computer Modern Typewriter', 'Andale Mono', 'Nimbus Mono L', 'Courier New', 'Courier', 'Fixed', 'Terminal', monospace; text-anchor: end; fill: #0f172a" x="822.626925" y="506.854425" transform="rotate(-45 822.626925 506.854425)">PPC</text>
     </g>
    </g>
    <g id="xtick_18">
     <g id="line2d_18">
      <g>
       <use xlink:href="#mf10b925aa1" x="864.5575" y="494.985" style="fill: #0f172a; stroke: #0f172a; stroke-width: 0.8"/>
      </g>
     </g>
     <g id="text_18">
      <text style="font-size: 9px; font-family: 'DejaVu Sans Mono', 'Bitstream Vera Sans Mono', 'Computer Modern Typewriter', 'Andale Mono', 'Nimbus Mono L', 'Courier New', 'Courier', 'Fixed', 'Terminal', monospace; text-anchor: end; fill: #0f172a" x="869.280752" y="506.708252" transform="rotate(-45 869.280752 506.708252)">RANGE_DIST</text>
     </g>
    </g>
   </g>
   <g id="matplotlib.axis_2">
    <g id="ytick_1">
     <g id="line2d_19">
      <defs>
       <path id="m3739ba486b" d="M 0 0 
L -3.5 0 
" style="stroke: #0f172a; stroke-width: 0.8"/>
      </defs>
      <g>
       <use xlink:href="#m3739ba486b" x="40.8775" y="494.985" style="fill: #0f172a; stroke: #0f172a; stroke-width: 0.8"/>
      </g>
     </g>
     <g id="text_19">
      <text style="font-size: 12px; font-family: 'Helvetica', 'Arial', 'DejaVu Sans', sans-serif; text-anchor: end; fill: #0f172a" x="33.8775" y="499.289062" transform="rotate(-0 33.8775 499.289062)">0</text>
     </g>
    </g>
    <g id="ytick_2">
     <g id="line2d_20">
      <g>
       <use xlink:href="#m3739ba486b" x="40.8775" y="416.098043" style="fill: #0f172a; stroke: #0f172a; stroke-width: 0.8"/>
      </g>
     </g>
     <g id="text_20">
      <text style="font-size: 12px; font-family: 'Helvetica', 'Arial', 'DejaVu Sans', sans-serif; text-anchor: end; fill: #0f172a" x="33.8775" y="420.402106" transform="rotate(-0 33.8775 420.402106)">5</text>
     </g>
    </g>
    <g id="ytick_3">
     <g id="line2d_21">
      <g>
       <use xlink:href="#m3739ba486b" x="40.8775" y="337.211087" style="fill: #0f172a; stroke: #0f172a; stroke-width: 0.8"/>
      </g>
     </g>
     <g id="text_21">
      <text style="font-size: 12px; font-family: 'Helvetica', 'Arial', 'DejaVu Sans', sans-serif; text-anchor: end; fill: #0f172a" x="33.8775" y="341.515149" transform="rotate(-0 33.8775 341.515149)">10</text>
     </g>
    </g>
    <g id="ytick_4">
     <g id="line2d_22">
      <g>
       <use xlink:href="#m3739ba486b" x="40.8775" y="258.32413" style="fill: #0f172a; stroke: #0f172a; stroke-width: 0.8"/>
      </g>
     </g>
     <g id="text_22">
      <text style="font-size: 12px; font-family: 'Helvetica', 'Arial', 'DejaVu Sans', sans-serif; text-anchor: end; fill: #0f172a" x="33.8775" y="262.628193" transform="rotate(-0 33.8775 262.628193)">15</text>
     </g>
    </g>
    <g id="ytick_5">
     <g id="line2d_23">
      <g>
       <use xlink:href="#m3739ba486b" x="40.8775" y="179.437174" style="fill: #0f172a; stroke: #0f172a; stroke-width: 0.8"/>
      </g>
     </g>
     <g id="text_23">
      <text style="font-size: 12px; font-family: 'Helvetica', 'Arial', 'DejaVu Sans', sans-serif; text-anchor: end; fill: #0f172a" x="33.8775" y="183.741236" transform="rotate(-0 33.8775 183.741236)">20</text>
     </g>
    </g>
    <g id="ytick_6">
     <g id="line2d_24">
      <g>
       <use xlink:href="#m3739ba486b" x="40.8775" y="100.550217" style="fill: #0f172a; stroke: #0f172a; stroke-width: 0.8"/>
      </g>
     </g>
     <g id="text_24">
      <text style="font-size: 12px; font-family: 'Helvetica', 'Arial', 'DejaVu Sans', sans-serif; text-anchor: end; fill: #0f172a" x="33.8775" y="104.85428" transform="rotate(-0 33.8775 104.85428)">25</text>
     </g>
    </g>
    <g id="text_25">
     <text style="font-size: 10px; font-family: 'Helvetica', 'Arial', 'DejaVu Sans', sans-serif; text-anchor: middle; fill: #334155" x="14.446875" y="268.185" transform="rotate(-90 14.446875 268.185)">Failure count (stacked)</text>
    </g>
   </g>
   <g id="patch_3">
    <path d="M 50.7055 494.985 
L 87.2095 494.985 
L 87.2095 226.769348 
L 50.7055 226.769348 
z
" clip-path="url(#pcda2a4a9ca)" style="fill: #d97706"/>
   </g>
   <g id="patch_4">
    <path d="M 97.5055 494.985 
L 134.0095 494.985 
L 134.0095 400.320652 
L 97.5055 400.320652 
z
" clip-path="url(#pcda2a4a9ca)" style="fill: #d97706"/>
   </g>
   <g id="patch_5">
    <path d="M 144.3055 494.985 
L 180.8095 494.985 
L 180.8095 463.430217 
L 144.3055 463.430217 
z
" clip-path="url(#pcda2a4a9ca)" style="fill: #d97706"/>
   </g>
   <g id="patch_6">
    <path d="M 191.1055 494.985 
L 227.6095 494.985 
L 227.6095 305.656304 
L 191.1055 305.656304 
z
" clip-path="url(#pcda2a4a9ca)" style="fill: #d97706"/>
   </g>
   <g id="patch_7">
    <path d="M 237.9055 494.985 
L 274.4095 494.985 
L 274.4095 416.098043 
L 237.9055 416.098043 
z
" clip-path="url(#pcda2a4a9ca)" style="fill: #d97706"/>
   </g>
   <g id="patch_8">
    <path d="M 284.7055 494.985 
L 321.2095 494.985 
L 321.2095 384.543261 
L 284.7055 384.543261 
z
" clip-path="url(#pcda2a4a9ca)" style="fill: #d97706"/>
   </g>
   <g id="patch_9">
    <path d="M 331.5055 494.985 
L 368.0095 494.985 
L 368.0095 368.76587 
L 331.5055 368.76587 
z
" clip-path="url(#pcda2a4a9ca)" style="fill: #d97706"/>
   </g>
   <g id="patch_10">
    <path d="M 378.3055 494.985 
L 414.8095 494.985 
L 414.8095 431.875435 
L 378.3055 431.875435 
z
" clip-path="url(#pcda2a4a9ca)" style="fill: #d97706"/>
   </g>
   <g id="patch_11">
    <path d="M 425.1055 494.985 
L 461.6095 494.985 
L 461.6095 463.430217 
L 425.1055 463.430217 
z
" clip-path="url(#pcda2a4a9ca)" style="fill: #d97706"/>
   </g>
   <g id="patch_12">
    <path d="M 471.9055 494.985 
L 508.4095 494.985 
L 508.4095 494.985 
L 471.9055 494.985 
z
" clip-path="url(#pcda2a4a9ca)" style="fill: #d97706"/>
   </g>
   <g id="patch_13">
    <path d="M 518.7055 494.985 
L 555.2095 494.985 
L 555.2095 479.207609 
L 518.7055 479.207609 
z
" clip-path="url(#pcda2a4a9ca)" style="fill: #d97706"/>
   </g>
   <g id="patch_14">
    <path d="M 565.5055 494.985 
L 602.0095 494.985 
L 602.0095 479.207609 
L 565.5055 479.207609 
z
" clip-path="url(#pcda2a4a9ca)" style="fill: #d97706"/>
   </g>
   <g id="patch_15">
    <path d="M 612.3055 494.985 
L 648.8095 494.985 
L 648.8095 494.985 
L 612.3055 494.985 
z
" clip-path="url(#pcda2a4a9ca)" style="fill: #d97706"/>
   </g>
   <g id="patch_16">
    <path d="M 659.1055 494.985 
L 695.6095 494.985 
L 695.6095 479.207609 
L 659.1055 479.207609 
z
" clip-path="url(#pcda2a4a9ca)" style="fill: #d97706"/>
   </g>
   <g id="patch_17">
    <path d="M 705.9055 494.985 
L 742.4095 494.985 
L 742.4095 494.985 
L 705.9055 494.985 
z
" clip-path="url(#pcda2a4a9ca)" style="fill: #d97706"/>
   </g>
   <g id="patch_18">
    <path d="M 752.7055 494.985 
L 789.2095 494.985 
L 789.2095 494.985 
L 752.7055 494.985 
z
" clip-path="url(#pcda2a4a9ca)" style="fill: #d97706"/>
   </g>
   <g id="patch_19">
    <path d="M 799.5055 494.985 
L 836.0095 494.985 
L 836.0095 494.985 
L 799.5055 494.985 
z
" clip-path="url(#pcda2a4a9ca)" style="fill: #d97706"/>
   </g>
   <g id="patch_20">
    <path d="M 846.3055 494.985 
L 882.8095 494.985 
L 882.8095 479.207609 
L 846.3055 479.207609 
z
" clip-path="url(#pcda2a4a9ca)" style="fill: #d97706"/>
   </g>
   <g id="patch_21">
    <path d="M 50.7055 226.769348 
L 87.2095 226.769348 
L 87.2095 195.214565 
L 50.7055 195.214565 
z
" clip-path="url(#pcda2a4a9ca)" style="fill: #dc2626"/>
   </g>
   <g id="patch_22">
    <path d="M 97.5055 400.320652 
L 134.0095 400.320652 
L 134.0095 195.214565 
L 97.5055 195.214565 
z
" clip-path="url(#pcda2a4a9ca)" style="fill: #dc2626"/>
   </g>
   <g id="patch_23">
    <path d="M 144.3055 463.430217 
L 180.8095 463.430217 
L 180.8095 210.991957 
L 144.3055 210.991957 
z
" clip-path="url(#pcda2a4a9ca)" style="fill: #dc2626"/>
   </g>
   <g id="patch_24">
    <path d="M 191.1055 305.656304 
L 227.6095 305.656304 
L 227.6095 305.656304 
L 191.1055 305.656304 
z
" clip-path="url(#pcda2a4a9ca)" style="fill: #dc2626"/>
   </g>
   <g id="patch_25">
    <path d="M 237.9055 416.098043 
L 274.4095 416.098043 
L 274.4095 416.098043 
L 237.9055 416.098043 
z
" clip-path="url(#pcda2a4a9ca)" style="fill: #dc2626"/>
   </g>
   <g id="patch_26">
    <path d="M 284.7055 384.543261 
L 321.2095 384.543261 
L 321.2095 368.76587 
L 284.7055 368.76587 
z
" clip-path="url(#pcda2a4a9ca)" style="fill: #dc2626"/>
   </g>
   <g id="patch_27">
    <path d="M 331.5055 368.76587 
L 368.0095 368.76587 
L 368.0095 368.76587 
L 331.5055 368.76587 
z
" clip-path="url(#pcda2a4a9ca)" style="fill: #dc2626"/>
   </g>
   <g id="patch_28">
    <path d="M 378.3055 431.875435 
L 414.8095 431.875435 
L 414.8095 384.543261 
L 378.3055 384.543261 
z
" clip-path="url(#pcda2a4a9ca)" style="fill: #dc2626"/>
   </g>
   <g id="patch_29">
    <path d="M 425.1055 463.430217 
L 461.6095 463.430217 
L 461.6095 431.875435 
L 425.1055 431.875435 
z
" clip-path="url(#pcda2a4a9ca)" style="fill: #dc2626"/>
   </g>
   <g id="patch_30">
    <path d="M 471.9055 494.985 
L 508.4095 494.985 
L 508.4095 416.098043 
L 471.9055 416.098043 
z
" clip-path="url(#pcda2a4a9ca)" style="fill: #dc2626"/>
   </g>
   <g id="patch_31">
    <path d="M 518.7055 479.207609 
L 555.2095 479.207609 
L 555.2095 463.430217 
L 518.7055 463.430217 
z
" clip-path="url(#pcda2a4a9ca)" style="fill: #dc2626"/>
   </g>
   <g id="patch_32">
    <path d="M 565.5055 479.207609 
L 602.0095 479.207609 
L 602.0095 463.430217 
L 565.5055 463.430217 
z
" clip-path="url(#pcda2a4a9ca)" style="fill: #dc2626"/>
   </g>
   <g id="patch_33">
    <path d="M 612.3055 494.985 
L 648.8095 494.985 
L 648.8095 463.430217 
L 612.3055 463.430217 
z
" clip-path="url(#pcda2a4a9ca)" style="fill: #dc2626"/>
   </g>
   <g id="patch_34">
    <path d="M 659.1055 479.207609 
L 695.6095 479.207609 
L 695.6095 463.430217 
L 659.1055 463.430217 
z
" clip-path="url(#pcda2a4a9ca)" style="fill: #dc2626"/>
   </g>
   <g id="patch_35">
    <path d="M 705.9055 494.985 
L 742.4095 494.985 
L 742.4095 494.985 
L 705.9055 494.985 
z
" clip-path="url(#pcda2a4a9ca)" style="fill: #dc2626"/>
   </g>
   <g id="patch_36">
    <path d="M 752.7055 494.985 
L 789.2095 494.985 
L 789.2095 494.985 
L 752.7055 494.985 
z
" clip-path="url(#pcda2a4a9ca)" style="fill: #dc2626"/>
   </g>
   <g id="patch_37">
    <path d="M 799.5055 494.985 
L 836.0095 494.985 
L 836.0095 479.207609 
L 799.5055 479.207609 
z
" clip-path="url(#pcda2a4a9ca)" style="fill: #dc2626"/>
   </g>
   <g id="patch_38">
    <path d="M 846.3055 479.207609 
L 882.8095 479.207609 
L 882.8095 479.207609 
L 846.3055 479.207609 
z
" clip-path="url(#pcda2a4a9ca)" style="fill: #dc2626"/>
   </g>
   <g id="patch_39">
    <path d="M 50.7055 195.214565 
L 87.2095 195.214565 
L 87.2095 132.105 
L 50.7055 132.105 
z
" clip-path="url(#pcda2a4a9ca)" style="fill: #475569"/>
   </g>
   <g id="patch_40">
    <path d="M 97.5055 195.214565 
L 134.0095 195.214565 
L 134.0095 116.327609 
L 97.5055 116.327609 
z
" clip-path="url(#pcda2a4a9ca)" style="fill: #475569"/>
   </g>
   <g id="patch_41">
    <path d="M 144.3055 210.991957 
L 180.8095 210.991957 
L 180.8095 210.991957 
L 144.3055 210.991957 
z
" clip-path="url(#pcda2a4a9ca)" style="fill: #475569"/>
   </g>
   <g id="patch_42">
    <path d="M 191.1055 305.656304 
L 227.6095 305.656304 
L 227.6095 305.656304 
L 191.1055 305.656304 
z
" clip-path="url(#pcda2a4a9ca)" style="fill: #475569"/>
   </g>
   <g id="patch_43">
    <path d="M 237.9055 416.098043 
L 274.4095 416.098043 
L 274.4095 352.988478 
L 237.9055 352.988478 
z
" clip-path="url(#pcda2a4a9ca)" style="fill: #475569"/>
   </g>
   <g id="patch_44">
    <path d="M 284.7055 368.76587 
L 321.2095 368.76587 
L 321.2095 352.988478 
L 284.7055 352.988478 
z
" clip-path="url(#pcda2a4a9ca)" style="fill: #475569"/>
   </g>
   <g id="patch_45">
    <path d="M 331.5055 368.76587 
L 368.0095 368.76587 
L 368.0095 368.76587 
L 331.5055 368.76587 
z
" clip-path="url(#pcda2a4a9ca)" style="fill: #475569"/>
   </g>
   <g id="patch_46">
    <path d="M 378.3055 384.543261 
L 414.8095 384.543261 
L 414.8095 368.76587 
L 378.3055 368.76587 
z
" clip-path="url(#pcda2a4a9ca)" style="fill: #475569"/>
   </g>
   <g id="patch_47">
    <path d="M 425.1055 431.875435 
L 461.6095 431.875435 
L 461.6095 400.320652 
L 425.1055 400.320652 
z
" clip-path="url(#pcda2a4a9ca)" style="fill: #475569"/>
   </g>
   <g id="patch_48">
    <path d="M 471.9055 416.098043 
L 508.4095 416.098043 
L 508.4095 416.098043 
L 471.9055 416.098043 
z
" clip-path="url(#pcda2a4a9ca)" style="fill: #475569"/>
   </g>
   <g id="patch_49">
    <path d="M 518.7055 463.430217 
L 555.2095 463.430217 
L 555.2095 463.430217 
L 518.7055 463.430217 
z
" clip-path="url(#pcda2a4a9ca)" style="fill: #475569"/>
   </g>
   <g id="patch_50">
    <path d="M 565.5055 463.430217 
L 602.0095 463.430217 
L 602.0095 463.430217 
L 565.5055 463.430217 
z
" clip-path="url(#pcda2a4a9ca)" style="fill: #475569"/>
   </g>
   <g id="patch_51">
    <path d="M 612.3055 463.430217 
L 648.8095 463.430217 
L 648.8095 463.430217 
L 612.3055 463.430217 
z
" clip-path="url(#pcda2a4a9ca)" style="fill: #475569"/>
   </g>
   <g id="patch_52">
    <path d="M 659.1055 463.430217 
L 695.6095 463.430217 
L 695.6095 463.430217 
L 659.1055 463.430217 
z
" clip-path="url(#pcda2a4a9ca)" style="fill: #475569"/>
   </g>
   <g id="patch_53">
    <path d="M 705.9055 494.985 
L 742.4095 494.985 
L 742.4095 479.207609 
L 705.9055 479.207609 
z
" clip-path="url(#pcda2a4a9ca)" style="fill: #475569"/>
   </g>
   <g id="patch_54">
    <path d="M 752.7055 494.985 
L 789.2095 494.985 
L 789.2095 494.985 
L 752.7055 494.985 
z
" clip-path="url(#pcda2a4a9ca)" style="fill: #475569"/>
   </g>
   <g id="patch_55">
    <path d="M 799.5055 479.207609 
L 836.0095 479.207609 
L 836.0095 479.207609 
L 799.5055 479.207609 
z
" clip-path="url(#pcda2a4a9ca)" style="fill: #475569"/>
   </g>
   <g id="patch_56">
    <path d="M 846.3055 479.207609 
L 882.8095 479.207609 
L 882.8095 479.207609 
L 846.3055 479.207609 
z
" clip-path="url(#pcda2a4a9ca)" style="fill: #475569"/>
   </g>
   <g id="patch_57">
    <path d="M 50.7055 132.105 
L 87.2095 132.105 
L 87.2095 100.550217 
L 50.7055 100.550217 
z
" clip-path="url(#pcda2a4a9ca)" style="fill: #7c3aed"/>
   </g>
   <g id="patch_58">
    <path d="M 97.5055 116.327609 
L 134.0095 116.327609 
L 134.0095 100.550217 
L 97.5055 100.550217 
z
" clip-path="url(#pcda2a4a9ca)" style="fill: #7c3aed"/>
   </g>
   <g id="patch_59">
    <path d="M 144.3055 210.991957 
L 180.8095 210.991957 
L 180.8095 195.214565 
L 144.3055 195.214565 
z
" clip-path="url(#pcda2a4a9ca)" style="fill: #7c3aed"/>
   </g>
   <g id="patch_60">
    <path d="M 191.1055 305.656304 
L 227.6095 305.656304 
L 227.6095 289.878913 
L 191.1055 289.878913 
z
" clip-path="url(#pcda2a4a9ca)" style="fill: #7c3aed"/>
   </g>
   <g id="patch_61">
    <path d="M 237.9055 352.988478 
L 274.4095 352.988478 
L 274.4095 352.988478 
L 237.9055 352.988478 
z
" clip-path="url(#pcda2a4a9ca)" style="fill: #7c3aed"/>
   </g>
   <g id="patch_62">
    <path d="M 284.7055 352.988478 
L 321.2095 352.988478 
L 321.2095 352.988478 
L 284.7055 352.988478 
z
" clip-path="url(#pcda2a4a9ca)" style="fill: #7c3aed"/>
   </g>
   <g id="patch_63">
    <path d="M 331.5055 368.76587 
L 368.0095 368.76587 
L 368.0095 368.76587 
L 331.5055 368.76587 
z
" clip-path="url(#pcda2a4a9ca)" style="fill: #7c3aed"/>
   </g>
   <g id="patch_64">
    <path d="M 378.3055 368.76587 
L 414.8095 368.76587 
L 414.8095 368.76587 
L 378.3055 368.76587 
z
" clip-path="url(#pcda2a4a9ca)" style="fill: #7c3aed"/>
   </g>
   <g id="patch_65">
    <path d="M 425.1055 400.320652 
L 461.6095 400.320652 
L 461.6095 400.320652 
L 425.1055 400.320652 
z
" clip-path="url(#pcda2a4a9ca)" style="fill: #7c3aed"/>
   </g>
   <g id="patch_66">
    <path d="M 471.9055 416.098043 
L 508.4095 416.098043 
L 508.4095 400.320652 
L 471.9055 400.320652 
z
" clip-path="url(#pcda2a4a9ca)" style="fill: #7c3aed"/>
   </g>
   <g id="patch_67">
    <path d="M 518.7055 463.430217 
L 555.2095 463.430217 
L 555.2095 431.875435 
L 518.7055 431.875435 
z
" clip-path="url(#pcda2a4a9ca)" style="fill: #7c3aed"/>
   </g>
   <g id="patch_68">
    <path d="M 565.5055 463.430217 
L 602.0095 463.430217 
L 602.0095 447.652826 
L 565.5055 447.652826 
z
" clip-path="url(#pcda2a4a9ca)" style="fill: #7c3aed"/>
   </g>
   <g id="patch_69">
    <path d="M 612.3055 463.430217 
L 648.8095 463.430217 
L 648.8095 463.430217 
L 612.3055 463.430217 
z
" clip-path="url(#pcda2a4a9ca)" style="fill: #7c3aed"/>
   </g>
   <g id="patch_70">
    <path d="M 659.1055 463.430217 
L 695.6095 463.430217 
L 695.6095 463.430217 
L 659.1055 463.430217 
z
" clip-path="url(#pcda2a4a9ca)" style="fill: #7c3aed"/>
   </g>
   <g id="patch_71">
    <path d="M 705.9055 479.207609 
L 742.4095 479.207609 
L 742.4095 479.207609 
L 705.9055 479.207609 
z
" clip-path="url(#pcda2a4a9ca)" style="fill: #7c3aed"/>
   </g>
   <g id="patch_72">
    <path d="M 752.7055 494.985 
L 789.2095 494.985 
L 789.2095 479.207609 
L 752.7055 479.207609 
z
" clip-path="url(#pcda2a4a9ca)" style="fill: #7c3aed"/>
   </g>
   <g id="patch_73">
    <path d="M 799.5055 479.207609 
L 836.0095 479.207609 
L 836.0095 479.207609 
L 799.5055 479.207609 
z
" clip-path="url(#pcda2a4a9ca)" style="fill: #7c3aed"/>
   </g>
   <g id="patch_74">
    <path d="M 846.3055 479.207609 
L 882.8095 479.207609 
L 882.8095 479.207609 
L 846.3055 479.207609 
z
" clip-path="url(#pcda2a4a9ca)" style="fill: #7c3aed"/>
   </g>
   <g id="patch_75">
    <path d="M 40.8775 494.985 
L 40.8775 41.385 
" style="fill: none; opacity: 0.3; stroke: #475569; stroke-width: 0.8; stroke-linejoin: miter; stroke-linecap: square"/>
   </g>
   <g id="patch_76">
    <path d="M 40.8775 494.985 
L 892.6375 494.985 
" style="fill: none; opacity: 0.3; stroke: #475569; stroke-width: 0.8; stroke-linejoin: miter; stroke-linecap: square"/>
   </g>
   <g id="text_26">
    <text style="font-weight: 700; font-size: 10px; font-family: 'Helvetica', 'Arial', 'DejaVu Sans', sans-serif; text-anchor: middle; fill: #0f172a" x="68.9575" y="90.577147" transform="rotate(-0 68.9575 90.577147)">100%</text>
   </g>
   <g id="text_27">
    <text style="font-weight: 700; font-size: 10px; font-family: 'Helvetica', 'Arial', 'DejaVu Sans', sans-serif; text-anchor: middle; fill: #0f172a" x="115.7575" y="90.577147" transform="rotate(-0 115.7575 90.577147)">100%</text>
   </g>
   <g id="text_28">
    <text style="font-weight: 700; font-size: 10px; font-family: 'Helvetica', 'Arial', 'DejaVu Sans', sans-serif; text-anchor: middle; fill: #0f172a" x="162.5575" y="185.241495" transform="rotate(-0 162.5575 185.241495)">76%</text>
   </g>
   <g id="text_29">
    <text style="font-weight: 700; font-size: 10px; font-family: 'Helvetica', 'Arial', 'DejaVu Sans', sans-serif; text-anchor: middle; fill: #0f172a" x="209.3575" y="279.905842" transform="rotate(-0 209.3575 279.905842)">52%</text>
   </g>
   <g id="text_30">
    <text style="font-weight: 700; font-size: 10px; font-family: 'Helvetica', 'Arial', 'DejaVu Sans', sans-serif; text-anchor: middle; fill: #0f172a" x="256.1575" y="343.015408" transform="rotate(-0 256.1575 343.015408)">36%</text>
   </g>
   <g id="text_31">
    <text style="font-weight: 700; font-size: 10px; font-family: 'Helvetica', 'Arial', 'DejaVu Sans', sans-serif; text-anchor: middle; fill: #0f172a" x="302.9575" y="343.015408" transform="rotate(-0 302.9575 343.015408)">36%</text>
   </g>
   <g id="text_32">
    <text style="font-weight: 700; font-size: 10px; font-family: 'Helvetica', 'Arial', 'DejaVu Sans', sans-serif; text-anchor: middle; fill: #0f172a" x="349.7575" y="358.792799" transform="rotate(-0 349.7575 358.792799)">32%</text>
   </g>
   <g id="text_33">
    <text style="font-weight: 700; font-size: 10px; font-family: 'Helvetica', 'Arial', 'DejaVu Sans', sans-serif; text-anchor: middle; fill: #0f172a" x="396.5575" y="358.792799" transform="rotate(-0 396.5575 358.792799)">53%</text>
   </g>
   <g id="text_34">
    <text style="font-weight: 700; font-size: 10px; font-family: 'Helvetica', 'Arial', 'DejaVu Sans', sans-serif; text-anchor: middle; fill: #0f172a" x="443.3575" y="390.347582" transform="rotate(-0 443.3575 390.347582)">24%</text>
   </g>
   <g id="text_35">
    <text style="font-weight: 700; font-size: 10px; font-family: 'Helvetica', 'Arial', 'DejaVu Sans', sans-serif; text-anchor: middle; fill: #0f172a" x="490.1575" y="390.347582" transform="rotate(-0 490.1575 390.347582)">24%</text>
   </g>
   <g id="text_36">
    <text style="font-weight: 700; font-size: 10px; font-family: 'Helvetica', 'Arial', 'DejaVu Sans', sans-serif; text-anchor: middle; fill: #0f172a" x="536.9575" y="421.902364" transform="rotate(-0 536.9575 421.902364)">16%</text>
   </g>
   <g id="text_37">
    <text style="font-weight: 700; font-size: 10px; font-family: 'Helvetica', 'Arial', 'DejaVu Sans', sans-serif; text-anchor: middle; fill: #0f172a" x="583.7575" y="437.679755" transform="rotate(-0 583.7575 437.679755)">20%</text>
   </g>
   <g id="text_38">
    <text style="font-weight: 700; font-size: 10px; font-family: 'Helvetica', 'Arial', 'DejaVu Sans', sans-serif; text-anchor: middle; fill: #0f172a" x="630.5575" y="453.457147" transform="rotate(-0 630.5575 453.457147)">13%</text>
   </g>
   <g id="text_39">
    <text style="font-weight: 700; font-size: 10px; font-family: 'Helvetica', 'Arial', 'DejaVu Sans', sans-serif; text-anchor: middle; fill: #0f172a" x="677.3575" y="453.457147" transform="rotate(-0 677.3575 453.457147)">8%</text>
   </g>
   <g id="text_40">
    <text style="font-weight: 700; font-size: 10px; font-family: 'Helvetica', 'Arial', 'DejaVu Sans', sans-serif; text-anchor: middle; fill: #0f172a" x="724.1575" y="469.234538" transform="rotate(-0 724.1575 469.234538)">4%</text>
   </g>
   <g id="text_41">
    <text style="font-weight: 700; font-size: 10px; font-family: 'Helvetica', 'Arial', 'DejaVu Sans', sans-serif; text-anchor: middle; fill: #0f172a" x="770.9575" y="469.234538" transform="rotate(-0 770.9575 469.234538)">2%</text>
   </g>
   <g id="text_42">
    <text style="font-weight: 700; font-size: 10px; font-family: 'Helvetica', 'Arial', 'DejaVu Sans', sans-serif; text-anchor: middle; fill: #0f172a" x="817.7575" y="469.234538" transform="rotate(-0 817.7575 469.234538)">4%</text>
   </g>
   <g id="text_43">
    <text style="font-weight: 700; font-size: 10px; font-family: 'Helvetica', 'Arial', 'DejaVu Sans', sans-serif; text-anchor: middle; fill: #0f172a" x="864.5575" y="469.234538" transform="rotate(-0 864.5575 469.234538)">7%</text>
   </g>
   <g id="text_44">
    <text style="font-weight: 700; font-size: 14px; font-family: 'Helvetica', 'Arial', 'DejaVu Sans', sans-serif; text-anchor: start; fill: #0f172a" x="40.8775" y="17.385" transform="rotate(-0 40.8775 17.385)">Failure rate by task type · sorted by total failures</text>
   </g>
   <g id="legend_1">
    <g id="patch_77">
     <path d="M 229.477812 626.335 
L 243.477812 626.335 
L 243.477812 617.385 
L 229.477812 617.385 
z
" style="fill: #d97706"/>
    </g>
    <g id="text_45">
     <text style="font-size: 10px; font-family: 'Helvetica', 'Arial', 'DejaVu Sans', sans-serif; text-anchor: start; fill: #0f172a" x="249.477812" y="625.285" transform="rotate(-0 249.477812 625.285)">Assumption Violation</text>
    </g>
    <g id="patch_78">
     <path d="M 362.8575 626.335 
L 376.8575 626.335 
L 376.8575 617.385 
L 362.8575 617.385 
z
" style="fill: #dc2626"/>
    </g>
    <g id="text_46">
     <text style="font-size: 10px; font-family: 'Helvetica', 'Arial', 'DejaVu Sans', sans-serif; text-anchor: start; fill: #0f172a" x="382.8575" y="625.285" transform="rotate(-0 382.8575 625.285)">Mathematical Error</text>
    </g>
    <g id="patch_79">
     <path d="M 487.32 626.335 
L 501.32 626.335 
L 501.32 617.385 
L 487.32 617.385 
z
" style="fill: #475569"/>
    </g>
    <g id="text_47">
     <text style="font-size: 10px; font-family: 'Helvetica', 'Arial', 'DejaVu Sans', sans-serif; text-anchor: start; fill: #0f172a" x="507.32" y="625.285" transform="rotate(-0 507.32 625.285)">Formatting Failure</text>
    </g>
    <g id="patch_80">
     <path d="M 608.45125 626.335 
L 622.45125 626.335 
L 622.45125 617.385 
L 608.45125 617.385 
z
" style="fill: #7c3aed"/>
    </g>
    <g id="text_48">
     <text style="font-size: 10px; font-family: 'Helvetica', 'Arial', 'DejaVu Sans', sans-serif; text-anchor: start; fill: #0f172a" x="628.45125" y="625.285" transform="rotate(-0 628.45125 625.285)">Conceptual Error</text>
    </g>
   </g>
  </g>
 </g>
 <defs>
  <clipPath id="pcda2a4a9ca">
   <rect x="40.8775" y="41.385" width="851.76" height="453.6"/>
  </clipPath>
 </defs>
</svg>
