<?xml version="1.0" encoding="utf-8" standalone="no"?>
<!DOCTYPE svg PUBLIC "-//W3C//DTD SVG 1.1//EN"
  "http://www.w3.org/Graphics/SVG/1.1/DTD/svg11.dtd">
<svg xmlns:xlink="http://www.w3.org/1999/xlink" width="899.8375pt" height="673.0415pt" viewBox="0 0 899.8375 673.0415" xmlns="http://www.w3.org/2000/svg" version="1.1">
 <metadata>
  <rdf:RDF xmlns:dc="http://purl.org/dc/elements/1.1/" xmlns:cc="http://creativecommons.org/ns#" xmlns:rdf="http://www.w3.org/1999/02/22-rdf-syntax-ns#">
   <cc:Work>
    <dc:type rdf:resource="http://purl.org/dc/dcmitype/StillImage"/>
    <dc:date>2026-05-06T13:41:53.215605</dc:date>
    <dc:format>image/svg+xml</dc:format>
    <dc:creator>
     <cc:Agent>
      <dc:title>Matplotlib v3.10.8, https://matplotlib.org/</dc:title>
     </cc:Agent>
    </dc:creator>
   </cc:Work>
  </rdf:RDF>
 </metadata>
 <defs>
  <style type="text/css">*{stroke-linejoin: round; stroke-linecap: butt}</style>
 </defs>
 <g id="figure_1">
  <g id="patch_1">
   <path d="M 0 673.0415 
L 899.8375 673.0415 
L 899.8375 0 
L 0 0 
z
" style="fill: #ffffff"/>
  </g>
  <g id="axes_1">
   <g id="patch_2">
    <path d="M 40.8775 456.105 
L 892.6375 456.105 
L 892.6375 41.385 
L 40.8775 41.385 
z
" style="fill: #ffffff"/>
   </g>
   <g id="matplotlib.axis_1">
    <g id="xtick_1">
     <g id="line2d_1">
      <defs>
       <path id="md9b076d667" d="M 0 0 
L 0 3.5 
" style="stroke: #0f172a; stroke-width: 0.8"/>
      </defs>
      <g>
       <use xlink:href="#md9b076d667" x="68.9575" y="456.105" style="fill: #0f172a; stroke: #0f172a; stroke-width: 0.8"/>
      </g>
     </g>
     <g id="text_1">
      <text style="font-size: 9px; font-family: 'DejaVu Sans Mono', 'Bitstream Vera Sans Mono', 'Computer Modern Typewriter', 'Andale Mono', 'Nimbus Mono L', 'Courier New', 'Courier', 'Fixed', 'Terminal', monospace; text-anchor: end; fill: #0f172a" x="73.680752" y="467.828252" transform="rotate(-45 73.680752 467.828252)">BAYES_REG</text>
     </g>
    </g>
    <g id="xtick_2">
     <g id="line2d_2">
      <g>
       <use xlink:href="#md9b076d667" x="115.7575" y="456.105" style="fill: #0f172a; stroke: #0f172a; stroke-width: 0.8"/>
      </g>
     </g>
     <g id="text_2">
      <text style="font-size: 9px; font-family: 'DejaVu Sans Mono', 'Bitstream Vera Sans Mono', 'Computer Modern Typewriter', 'Andale Mono', 'Nimbus Mono L', 'Courier New', 'Courier', 'Fixed', 'Terminal', monospace; text-anchor: end; fill: #0f172a" x="120.626925" y="467.974425" transform="rotate(-45 120.626925 467.974425)">REGRESSION</text>
     </g>
    </g>
    <g id="xtick_3">
     <g id="line2d_3">
      <g>
       <use xlink:href="#md9b076d667" x="162.5575" y="456.105" style="fill: #0f172a; stroke: #0f172a; stroke-width: 0.8"/>
      </g>
     </g>
     <g id="text_3">
      <text style="font-size: 9px; font-family: 'DejaVu Sans Mono', 'Bitstream Vera Sans Mono', 'Computer Modern Typewriter', 'Andale Mono', 'Nimbus Mono L', 'Courier New', 'Courier', 'Fixed', 'Terminal', monospace; text-anchor: end; fill: #0f172a" x="167.280752" y="467.828252" transform="rotate(-45 167.280752 467.828252)">BOX_MULLER</text>
     </g>
    </g>
    <g id="xtick_4">
     <g id="line2d_4">
      <g>
       <use xlink:href="#md9b076d667" x="209.3575" y="456.105" style="fill: #0f172a; stroke: #0f172a; stroke-width: 0.8"/>
      </g>
     </g>
     <g id="text_4">
      <text style="font-size: 9px; font-family: 'DejaVu Sans Mono', 'Bitstream Vera Sans Mono', 'Computer Modern Typewriter', 'Andale Mono', 'Nimbus Mono L', 'Courier New', 'Courier', 'Fixed', 'Terminal', monospace; text-anchor: end; fill: #0f172a" x="214.080752" y="467.828252" transform="rotate(-45 214.080752 467.828252)">FISHER_INFO</text>
     </g>
    </g>
    <g id="xtick_5">
     <g id="line2d_5">
      <g>
       <use xlink:href="#md9b076d667" x="256.1575" y="456.105" style="fill: #0f172a; stroke: #0f172a; stroke-width: 0.8"/>
      </g>
     </g>
     <g id="text_5">
      <text style="font-size: 9px; font-family: 'DejaVu Sans Mono', 'Bitstream Vera Sans Mono', 'Computer Modern Typewriter', 'Andale Mono', 'Nimbus Mono L', 'Courier New', 'Courier', 'Fixed', 'Terminal', monospace; text-anchor: end; fill: #0f172a" x="260.880752" y="467.828252" transform="rotate(-45 260.880752 467.828252)">BAYES_FACTOR</text>
     </g>
    </g>
    <g id="xtick_6">
     <g id="line2d_6">
      <g>
       <use xlink:href="#md9b076d667" x="302.9575" y="456.105" style="fill: #0f172a; stroke: #0f172a; stroke-width: 0.8"/>
      </g>
     </g>
     <g id="text_6">
      <text style="font-size: 9px; font-family: 'DejaVu Sans Mono', 'Bitstream Vera Sans Mono', 'Computer Modern Typewriter', 'Andale Mono', 'Nimbus Mono L', 'Courier New', 'Courier', 'Fixed', 'Terminal', monospace; text-anchor: end; fill: #0f172a" x="307.680752" y="467.828252" transform="rotate(-45 307.680752 467.828252)">LOG_ML</text>
     </g>
    </g>
    <g id="xtick_7">
     <g id="line2d_7">
      <g>
       <use xlink:href="#md9b076d667" x="349.7575" y="456.105" style="fill: #0f172a; stroke: #0f172a; stroke-width: 0.8"/>
      </g>
     </g>
     <g id="text_7">
      <text style="font-size: 9px; font-family: 'DejaVu Sans Mono', 'Bitstream Vera Sans Mono', 'Computer Modern Typewriter', 'Andale Mono', 'Nimbus Mono L', 'Courier New', 'Courier', 'Fixed', 'Terminal', monospace; text-anchor: end; fill: #0f172a" x="354.480752" y="467.828252" transform="rotate(-45 354.480752 467.828252)">MSE_COMPARE</text>
     </g>
    </g>
    <g id="xtick_8">
     <g id="line2d_8">
      <g>
       <use xlink:href="#md9b076d667" x="396.5575" y="456.105" style="fill: #0f172a; stroke: #0f172a; stroke-width: 0.8"/>
      </g>
     </g>
     <g id="text_8">
      <text style="font-size: 9px; font-family: 'DejaVu Sans Mono', 'Bitstream Vera Sans Mono', 'Computer Modern Typewriter', 'Andale Mono', 'Nimbus Mono L', 'Courier New', 'Courier', 'Fixed', 'Terminal', monospace; text-anchor: end; fill: #0f172a" x="401.426925" y="467.974425" transform="rotate(-45 401.426925 467.974425)">STATIONARY</text>
     </g>
    </g>
    <g id="xtick_9">
     <g id="line2d_9">
      <g>
       <use xlink:href="#md9b076d667" x="443.3575" y="456.105" style="fill: #0f172a; stroke: #0f172a; stroke-width: 0.8"/>
      </g>
     </g>
     <g id="text_9">
      <text style="font-size: 9px; font-family: 'DejaVu Sans Mono', 'Bitstream Vera Sans Mono', 'Computer Modern Typewriter', 'Andale Mono', 'Nimbus Mono L', 'Courier New', 'Courier', 'Fixed', 'Terminal', monospace; text-anchor: end; fill: #0f172a" x="448.226925" y="467.974425" transform="rotate(-45 448.226925 467.974425)">MARKOV</text>
     </g>
    </g>
    <g id="xtick_10">
     <g id="line2d_10">
      <g>
       <use xlink:href="#md9b076d667" x="490.1575" y="456.105" style="fill: #0f172a; stroke: #0f172a; stroke-width: 0.8"/>
      </g>
     </g>
     <g id="text_10">
      <text style="font-size: 9px; font-family: 'DejaVu Sans Mono', 'Bitstream Vera Sans Mono', 'Computer Modern Typewriter', 'Andale Mono', 'Nimbus Mono L', 'Courier New', 'Courier', 'Fixed', 'Terminal', monospace; text-anchor: end; fill: #0f172a" x="494.880752" y="467.828252" transform="rotate(-45 494.880752 467.828252)">OPT_SCALED</text>
     </g>
    </g>
    <g id="xtick_11">
     <g id="line2d_11">
      <g>
       <use xlink:href="#md9b076d667" x="536.9575" y="456.105" style="fill: #0f172a; stroke: #0f172a; stroke-width: 0.8"/>
      </g>
     </g>
     <g id="text_11">
      <text style="font-size: 9px; font-family: 'DejaVu Sans Mono', 'Bitstream Vera Sans Mono', 'Computer Modern Typewriter', 'Andale Mono', 'Nimbus Mono L', 'Courier New', 'Courier', 'Fixed', 'Terminal', monospace; text-anchor: end; fill: #0f172a" x="541.680752" y="467.828252" transform="rotate(-45 541.680752 467.828252)">ORDER_STAT</text>
     </g>
    </g>
    <g id="xtick_12">
     <g id="line2d_12">
      <g>
       <use xlink:href="#md9b076d667" x="583.7575" y="456.105" style="fill: #0f172a; stroke: #0f172a; stroke-width: 0.8"/>
      </g>
     </g>
     <g id="text_12">
      <text style="font-size: 9px; font-family: 'DejaVu Sans Mono', 'Bitstream Vera Sans Mono', 'Computer Modern Typewriter', 'Andale Mono', 'Nimbus Mono L', 'Courier New', 'Courier', 'Fixed', 'Terminal', monospace; text-anchor: end; fill: #0f172a" x="588.480752" y="467.828252" transform="rotate(-45 588.480752 467.828252)">MLE_EFFICIENCY</text>
     </g>
    </g>
    <g id="xtick_13">
     <g id="line2d_13">
      <g>
       <use xlink:href="#md9b076d667" x="630.5575" y="456.105" style="fill: #0f172a; stroke: #0f172a; stroke-width: 0.8"/>
      </g>
     </g>
     <g id="text_13">
      <text style="font-size: 9px; font-family: 'DejaVu Sans Mono', 'Bitstream Vera Sans Mono', 'Computer Modern Typewriter', 'Andale Mono', 'Nimbus Mono L', 'Courier New', 'Courier', 'Fixed', 'Terminal', monospace; text-anchor: end; fill: #0f172a" x="635.426925" y="467.974425" transform="rotate(-45 635.426925 467.974425)">GAMBLER</text>
     </g>
    </g>
    <g id="xtick_14">
     <g id="line2d_14">
      <g>
       <use xlink:href="#md9b076d667" x="677.3575" y="456.105" style="fill: #0f172a; stroke: #0f172a; stroke-width: 0.8"/>
      </g>
     </g>
     <g id="text_14">
      <text style="font-size: 9px; font-family: 'DejaVu Sans Mono', 'Bitstream Vera Sans Mono', 'Computer Modern Typewriter', 'Andale Mono', 'Nimbus Mono L', 'Courier New', 'Courier', 'Fixed', 'Terminal', monospace; text-anchor: end; fill: #0f172a" x="682.049927" y="467.797427" transform="rotate(-45 682.049927 467.797427)">MLE_MAP</text>
     </g>
    </g>
    <g id="xtick_15">
     <g id="line2d_15">
      <g>
       <use xlink:href="#md9b076d667" x="724.1575" y="456.105" style="fill: #0f172a; stroke: #0f172a; stroke-width: 0.8"/>
      </g>
     </g>
     <g id="text_15">
      <text style="font-size: 9px; font-family: 'DejaVu Sans Mono', 'Bitstream Vera Sans Mono', 'Computer Modern Typewriter', 'Andale Mono', 'Nimbus Mono L', 'Courier New', 'Courier', 'Fixed', 'Terminal', monospace; text-anchor: end; fill: #0f172a" x="728.880752" y="467.828252" transform="rotate(-45 728.880752 467.828252)">CI_CREDIBLE</text>
     </g>
    </g>
    <g id="xtick_16">
     <g id="line2d_16">
      <g>
       <use xlink:href="#md9b076d667" x="770.9575" y="456.105" style="fill: #0f172a; stroke: #0f172a; stroke-width: 0.8"/>
      </g>
     </g>
     <g id="text_16">
      <text style="font-size: 9px; font-family: 'DejaVu Sans Mono', 'Bitstream Vera Sans Mono', 'Computer Modern Typewriter', 'Andale Mono', 'Nimbus Mono L', 'Courier New', 'Courier', 'Fixed', 'Terminal', monospace; text-anchor: end; fill: #0f172a" x="775.826925" y="467.974425" transform="rotate(-45 775.826925 467.974425)">CONCEPTUAL</text>
     </g>
    </g>
    <g id="xtick_17">
     <g id="line2d_17">
      <g>
       <use xlink:href="#md9b076d667" x="817.7575" y="456.105" style="fill: #0f172a; stroke: #0f172a; stroke-width: 0.8"/>
      </g>
     </g>
     <g id="text_17">
      <text style="font-size: 9px; font-family: 'DejaVu Sans Mono', 'Bitstream Vera Sans Mono', 'Computer Modern Typewriter', 'Andale Mono', 'Nimbus Mono L', 'Courier New', 'Courier', 'Fixed', 'Terminal', monospace; text-anchor: end; fill: #0f172a" x="822.626925" y="467.974425" transform="rotate(-45 822.626925 467.974425)">PPC</text>
     </g>
    </g>
    <g id="xtick_18">
     <g id="line2d_18">
      <g>
       <use xlink:href="#md9b076d667" x="864.5575" y="456.105" style="fill: #0f172a; stroke: #0f172a; stroke-width: 0.8"/>
      </g>
     </g>
     <g id="text_18">
      <text style="font-size: 9px; font-family: 'DejaVu Sans Mono', 'Bitstream Vera Sans Mono', 'Computer Modern Typewriter', 'Andale Mono', 'Nimbus Mono L', 'Courier New', 'Courier', 'Fixed', 'Terminal', monospace; text-anchor: end; fill: #0f172a" x="869.280752" y="467.828252" transform="rotate(-45 869.280752 467.828252)">RANGE_DIST</text>
     </g>
    </g>
   </g>
   <g id="matplotlib.axis_2">
    <g id="ytick_1">
     <g id="line2d_19">
      <defs>
       <path id="m6e7e29463f" d="M 0 0 
L -3.5 0 
" style="stroke: #0f172a; stroke-width: 0.8"/>
      </defs>
      <g>
       <use xlink:href="#m6e7e29463f" x="40.8775" y="456.105" style="fill: #0f172a; stroke: #0f172a; stroke-width: 0.8"/>
      </g>
     </g>
     <g id="text_19">
      <text style="font-size: 12px; font-family: 'Helvetica', 'Arial', 'DejaVu Sans', sans-serif; text-anchor: end; fill: #0f172a" x="33.8775" y="460.409063" transform="rotate(-0 33.8775 460.409063)">0</text>
     </g>
    </g>
    <g id="ytick_2">
     <g id="line2d_20">
      <g>
       <use xlink:href="#m6e7e29463f" x="40.8775" y="383.979783" style="fill: #0f172a; stroke: #0f172a; stroke-width: 0.8"/>
      </g>
     </g>
     <g id="text_20">
      <text style="font-size: 12px; font-family: 'Helvetica', 'Arial', 'DejaVu Sans', sans-serif; text-anchor: end; fill: #0f172a" x="33.8775" y="388.283845" transform="rotate(-0 33.8775 388.283845)">5</text>
     </g>
    </g>
    <g id="ytick_3">
     <g id="line2d_21">
      <g>
       <use xlink:href="#m6e7e29463f" x="40.8775" y="311.854565" style="fill: #0f172a; stroke: #0f172a; stroke-width: 0.8"/>
      </g>
     </g>
     <g id="text_21">
      <text style="font-size: 12px; font-family: 'Helvetica', 'Arial', 'DejaVu Sans', sans-serif; text-anchor: end; fill: #0f172a" x="33.8775" y="316.158628" transform="rotate(-0 33.8775 316.158628)">10</text>
     </g>
    </g>
    <g id="ytick_4">
     <g id="line2d_22">
      <g>
       <use xlink:href="#m6e7e29463f" x="40.8775" y="239.729348" style="fill: #0f172a; stroke: #0f172a; stroke-width: 0.8"/>
      </g>
     </g>
     <g id="text_22">
      <text style="font-size: 12px; font-family: 'Helvetica', 'Arial', 'DejaVu Sans', sans-serif; text-anchor: end; fill: #0f172a" x="33.8775" y="244.03341" transform="rotate(-0 33.8775 244.03341)">15</text>
     </g>
    </g>
    <g id="ytick_5">
     <g id="line2d_23">
      <g>
       <use xlink:href="#m6e7e29463f" x="40.8775" y="167.60413" style="fill: #0f172a; stroke: #0f172a; stroke-width: 0.8"/>
      </g>
     </g>
     <g id="text_23">
      <text style="font-size: 12px; font-family: 'Helvetica', 'Arial', 'DejaVu Sans', sans-serif; text-anchor: end; fill: #0f172a" x="33.8775" y="171.908193" transform="rotate(-0 33.8775 171.908193)">20</text>
     </g>
    </g>
    <g id="ytick_6">
     <g id="line2d_24">
      <g>
       <use xlink:href="#m6e7e29463f" x="40.8775" y="95.478913" style="fill: #0f172a; stroke: #0f172a; stroke-width: 0.8"/>
      </g>
     </g>
     <g id="text_24">
      <text style="font-size: 12px; font-family: 'Helvetica', 'Arial', 'DejaVu Sans', sans-serif; text-anchor: end; fill: #0f172a" x="33.8775" y="99.782976" transform="rotate(-0 33.8775 99.782976)">25</text>
     </g>
    </g>
    <g id="text_25">
     <text style="font-size: 10px; font-family: 'Helvetica', 'Arial', 'DejaVu Sans', sans-serif; text-anchor: middle; fill: #334155" x="14.446875" y="248.745" transform="rotate(-90 14.446875 248.745)">Failure count (stacked)</text>
    </g>
   </g>
   <g id="patch_3">
    <path d="M 50.7055 456.105 
L 87.2095 456.105 
L 87.2095 210.879261 
L 50.7055 210.879261 
z
" clip-path="url(#p9ee035799a)" style="fill: #d97706"/>
   </g>
   <g id="patch_4">
    <path d="M 97.5055 456.105 
L 134.0095 456.105 
L 134.0095 369.554739 
L 97.5055 369.554739 
z
" clip-path="url(#p9ee035799a)" style="fill: #d97706"/>
   </g>
   <g id="patch_5">
    <path d="M 144.3055 456.105 
L 180.8095 456.105 
L 180.8095 427.254913 
L 144.3055 427.254913 
z
" clip-path="url(#p9ee035799a)" style="fill: #d97706"/>
   </g>
   <g id="patch_6">
    <path d="M 191.1055 456.105 
L 227.6095 456.105 
L 227.6095 283.004478 
L 191.1055 283.004478 
z
" clip-path="url(#p9ee035799a)" style="fill: #d97706"/>
   </g>
   <g id="patch_7">
    <path d="M 237.9055 456.105 
L 274.4095 456.105 
L 274.4095 383.979783 
L 237.9055 383.979783 
z
" clip-path="url(#p9ee035799a)" style="fill: #d97706"/>
   </g>
   <g id="patch_8">
    <path d="M 284.7055 456.105 
L 321.2095 456.105 
L 321.2095 355.129696 
L 284.7055 355.129696 
z
" clip-path="url(#p9ee035799a)" style="fill: #d97706"/>
   </g>
   <g id="patch_9">
    <path d="M 331.5055 456.105 
L 368.0095 456.105 
L 368.0095 340.704652 
L 331.5055 340.704652 
z
" clip-path="url(#p9ee035799a)" style="fill: #d97706"/>
   </g>
   <g id="patch_10">
    <path d="M 378.3055 456.105 
L 414.8095 456.105 
L 414.8095 398.404826 
L 378.3055 398.404826 
z
" clip-path="url(#p9ee035799a)" style="fill: #d97706"/>
   </g>
   <g id="patch_11">
    <path d="M 425.1055 456.105 
L 461.6095 456.105 
L 461.6095 427.254913 
L 425.1055 427.254913 
z
" clip-path="url(#p9ee035799a)" style="fill: #d97706"/>
   </g>
   <g id="patch_12">
    <path d="M 471.9055 456.105 
L 508.4095 456.105 
L 508.4095 456.105 
L 471.9055 456.105 
z
" clip-path="url(#p9ee035799a)" style="fill: #d97706"/>
   </g>
   <g id="patch_13">
    <path d="M 518.7055 456.105 
L 555.2095 456.105 
L 555.2095 441.679957 
L 518.7055 441.679957 
z
" clip-path="url(#p9ee035799a)" style="fill: #d97706"/>
   </g>
   <g id="patch_14">
    <path d="M 565.5055 456.105 
L 602.0095 456.105 
L 602.0095 441.679957 
L 565.5055 441.679957 
z
" clip-path="url(#p9ee035799a)" style="fill: #d97706"/>
   </g>
   <g id="patch_15">
    <path d="M 612.3055 456.105 
L 648.8095 456.105 
L 648.8095 456.105 
L 612.3055 456.105 
z
" clip-path="url(#p9ee035799a)" style="fill: #d97706"/>
   </g>
   <g id="patch_16">
    <path d="M 659.1055 456.105 
L 695.6095 456.105 
L 695.6095 441.679957 
L 659.1055 441.679957 
z
" clip-path="url(#p9ee035799a)" style="fill: #d97706"/>
   </g>
   <g id="patch_17">
    <path d="M 705.9055 456.105 
L 742.4095 456.105 
L 742.4095 456.105 
L 705.9055 456.105 
z
" clip-path="url(#p9ee035799a)" style="fill: #d97706"/>
   </g>
   <g id="patch_18">
    <path d="M 752.7055 456.105 
L 789.2095 456.105 
L 789.2095 456.105 
L 752.7055 456.105 
z
" clip-path="url(#p9ee035799a)" style="fill: #d97706"/>
   </g>
   <g id="patch_19">
    <path d="M 799.5055 456.105 
L 836.0095 456.105 
L 836.0095 456.105 
L 799.5055 456.105 
z
" clip-path="url(#p9ee035799a)" style="fill: #d97706"/>
   </g>
   <g id="patch_20">
    <path d="M 846.3055 456.105 
L 882.8095 456.105 
L 882.8095 441.679957 
L 846.3055 441.679957 
z
" clip-path="url(#p9ee035799a)" style="fill: #d97706"/>
   </g>
   <g id="patch_21">
    <path d="M 50.7055 210.879261 
L 87.2095 210.879261 
L 87.2095 182.029174 
L 50.7055 182.029174 
z
" clip-path="url(#p9ee035799a)" style="fill: #dc2626"/>
   </g>
   <g id="patch_22">
    <path d="M 97.5055 369.554739 
L 134.0095 369.554739 
L 134.0095 182.029174 
L 97.5055 182.029174 
z
" clip-path="url(#p9ee035799a)" style="fill: #dc2626"/>
   </g>
   <g id="patch_23">
    <path d="M 144.3055 427.254913 
L 180.8095 427.254913 
L 180.8095 196.454217 
L 144.3055 196.454217 
z
" clip-path="url(#p9ee035799a)" style="fill: #dc2626"/>
   </g>
   <g id="patch_24">
    <path d="M 191.1055 283.004478 
L 227.6095 283.004478 
L 227.6095 283.004478 
L 191.1055 283.004478 
z
" clip-path="url(#p9ee035799a)" style="fill: #dc2626"/>
   </g>
   <g id="patch_25">
    <path d="M 237.9055 383.979783 
L 274.4095 383.979783 
L 274.4095 383.979783 
L 237.9055 383.979783 
z
" clip-path="url(#p9ee035799a)" style="fill: #dc2626"/>
   </g>
   <g id="patch_26">
    <path d="M 284.7055 355.129696 
L 321.2095 355.129696 
L 321.2095 340.704652 
L 284.7055 340.704652 
z
" clip-path="url(#p9ee035799a)" style="fill: #dc2626"/>
   </g>
   <g id="patch_27">
    <path d="M 331.5055 340.704652 
L 368.0095 340.704652 
L 368.0095 340.704652 
L 331.5055 340.704652 
z
" clip-path="url(#p9ee035799a)" style="fill: #dc2626"/>
   </g>
   <g id="patch_28">
    <path d="M 378.3055 398.404826 
L 414.8095 398.404826 
L 414.8095 355.129696 
L 378.3055 355.129696 
z
" clip-path="url(#p9ee035799a)" style="fill: #dc2626"/>
   </g>
   <g id="patch_29">
    <path d="M 425.1055 427.254913 
L 461.6095 427.254913 
L 461.6095 398.404826 
L 425.1055 398.404826 
z
" clip-path="url(#p9ee035799a)" style="fill: #dc2626"/>
   </g>
   <g id="patch_30">
    <path d="M 471.9055 456.105 
L 508.4095 456.105 
L 508.4095 383.979783 
L 471.9055 383.979783 
z
" clip-path="url(#p9ee035799a)" style="fill: #dc2626"/>
   </g>
   <g id="patch_31">
    <path d="M 518.7055 441.679957 
L 555.2095 441.679957 
L 555.2095 427.254913 
L 518.7055 427.254913 
z
" clip-path="url(#p9ee035799a)" style="fill: #dc2626"/>
   </g>
   <g id="patch_32">
    <path d="M 565.5055 441.679957 
L 602.0095 441.679957 
L 602.0095 427.254913 
L 565.5055 427.254913 
z
" clip-path="url(#p9ee035799a)" style="fill: #dc2626"/>
   </g>
   <g id="patch_33">
    <path d="M 612.3055 456.105 
L 648.8095 456.105 
L 648.8095 427.254913 
L 612.3055 427.254913 
z
" clip-path="url(#p9ee035799a)" style="fill: #dc2626"/>
   </g>
   <g id="patch_34">
    <path d="M 659.1055 441.679957 
L 695.6095 441.679957 
L 695.6095 427.254913 
L 659.1055 427.254913 
z
" clip-path="url(#p9ee035799a)" style="fill: #dc2626"/>
   </g>
   <g id="patch_35">
    <path d="M 705.9055 456.105 
L 742.4095 456.105 
L 742.4095 456.105 
L 705.9055 456.105 
z
" clip-path="url(#p9ee035799a)" style="fill: #dc2626"/>
   </g>
   <g id="patch_36">
    <path d="M 752.7055 456.105 
L 789.2095 456.105 
L 789.2095 456.105 
L 752.7055 456.105 
z
" clip-path="url(#p9ee035799a)" style="fill: #dc2626"/>
   </g>
   <g id="patch_37">
    <path d="M 799.5055 456.105 
L 836.0095 456.105 
L 836.0095 441.679957 
L 799.5055 441.679957 
z
" clip-path="url(#p9ee035799a)" style="fill: #dc2626"/>
   </g>
   <g id="patch_38">
    <path d="M 846.3055 441.679957 
L 882.8095 441.679957 
L 882.8095 441.679957 
L 846.3055 441.679957 
z
" clip-path="url(#p9ee035799a)" style="fill: #dc2626"/>
   </g>
   <g id="patch_39">
    <path d="M 50.7055 182.029174 
L 87.2095 182.029174 
L 87.2095 124.329 
L 50.7055 124.329 
z
" clip-path="url(#p9ee035799a)" style="fill: #475569"/>
   </g>
   <g id="patch_40">
    <path d="M 97.5055 182.029174 
L 134.0095 182.029174 
L 134.0095 109.903957 
L 97.5055 109.903957 
z
" clip-path="url(#p9ee035799a)" style="fill: #475569"/>
   </g>
   <g id="patch_41">
    <path d="M 144.3055 196.454217 
L 180.8095 196.454217 
L 180.8095 196.454217 
L 144.3055 196.454217 
z
" clip-path="url(#p9ee035799a)" style="fill: #475569"/>
   </g>
   <g id="patch_42">
    <path d="M 191.1055 283.004478 
L 227.6095 283.004478 
L 227.6095 283.004478 
L 191.1055 283.004478 
z
" clip-path="url(#p9ee035799a)" style="fill: #475569"/>
   </g>
   <g id="patch_43">
    <path d="M 237.9055 383.979783 
L 274.4095 383.979783 
L 274.4095 326.279609 
L 237.9055 326.279609 
z
" clip-path="url(#p9ee035799a)" style="fill: #475569"/>
   </g>
   <g id="patch_44">
    <path d="M 284.7055 340.704652 
L 321.2095 340.704652 
L 321.2095 326.279609 
L 284.7055 326.279609 
z
" clip-path="url(#p9ee035799a)" style="fill: #475569"/>
   </g>
   <g id="patch_45">
    <path d="M 331.5055 340.704652 
L 368.0095 340.704652 
L 368.0095 340.704652 
L 331.5055 340.704652 
z
" clip-path="url(#p9ee035799a)" style="fill: #475569"/>
   </g>
   <g id="patch_46">
    <path d="M 378.3055 355.129696 
L 414.8095 355.129696 
L 414.8095 340.704652 
L 378.3055 340.704652 
z
" clip-path="url(#p9ee035799a)" style="fill: #475569"/>
   </g>
   <g id="patch_47">
    <path d="M 425.1055 398.404826 
L 461.6095 398.404826 
L 461.6095 369.554739 
L 425.1055 369.554739 
z
" clip-path="url(#p9ee035799a)" style="fill: #475569"/>
   </g>
   <g id="patch_48">
    <path d="M 471.9055 383.979783 
L 508.4095 383.979783 
L 508.4095 383.979783 
L 471.9055 383.979783 
z
" clip-path="url(#p9ee035799a)" style="fill: #475569"/>
   </g>
   <g id="patch_49">
    <path d="M 518.7055 427.254913 
L 555.2095 427.254913 
L 555.2095 427.254913 
L 518.7055 427.254913 
z
" clip-path="url(#p9ee035799a)" style="fill: #475569"/>
   </g>
   <g id="patch_50">
    <path d="M 565.5055 427.254913 
L 602.0095 427.254913 
L 602.0095 427.254913 
L 565.5055 427.254913 
z
" clip-path="url(#p9ee035799a)" style="fill: #475569"/>
   </g>
   <g id="patch_51">
    <path d="M 612.3055 427.254913 
L 648.8095 427.254913 
L 648.8095 427.254913 
L 612.3055 427.254913 
z
" clip-path="url(#p9ee035799a)" style="fill: #475569"/>
   </g>
   <g id="patch_52">
    <path d="M 659.1055 427.254913 
L 695.6095 427.254913 
L 695.6095 427.254913 
L 659.1055 427.254913 
z
" clip-path="url(#p9ee035799a)" style="fill: #475569"/>
   </g>
   <g id="patch_53">
    <path d="M 705.9055 456.105 
L 742.4095 456.105 
L 742.4095 441.679957 
L 705.9055 441.679957 
z
" clip-path="url(#p9ee035799a)" style="fill: #475569"/>
   </g>
   <g id="patch_54">
    <path d="M 752.7055 456.105 
L 789.2095 456.105 
L 789.2095 456.105 
L 752.7055 456.105 
z
" clip-path="url(#p9ee035799a)" style="fill: #475569"/>
   </g>
   <g id="patch_55">
    <path d="M 799.5055 441.679957 
L 836.0095 441.679957 
L 836.0095 441.679957 
L 799.5055 441.679957 
z
" clip-path="url(#p9ee035799a)" style="fill: #475569"/>
   </g>
   <g id="patch_56">
    <path d="M 846.3055 441.679957 
L 882.8095 441.679957 
L 882.8095 441.679957 
L 846.3055 441.679957 
z
" clip-path="url(#p9ee035799a)" style="fill: #475569"/>
   </g>
   <g id="patch_57">
    <path d="M 50.7055 124.329 
L 87.2095 124.329 
L 87.2095 95.478913 
L 50.7055 95.478913 
z
" clip-path="url(#p9ee035799a)" style="fill: #7c3aed"/>
   </g>
   <g id="patch_58">
    <path d="M 97.5055 109.903957 
L 134.0095 109.903957 
L 134.0095 95.478913 
L 97.5055 95.478913 
z
" clip-path="url(#p9ee035799a)" style="fill: #7c3aed"/>
   </g>
   <g id="patch_59">
    <path d="M 144.3055 196.454217 
L 180.8095 196.454217 
L 180.8095 182.029174 
L 144.3055 182.029174 
z
" clip-path="url(#p9ee035799a)" style="fill: #7c3aed"/>
   </g>
   <g id="patch_60">
    <path d="M 191.1055 283.004478 
L 227.6095 283.004478 
L 227.6095 268.579435 
L 191.1055 268.579435 
z
" clip-path="url(#p9ee035799a)" style="fill: #7c3aed"/>
   </g>
   <g id="patch_61">
    <path d="M 237.9055 326.279609 
L 274.4095 326.279609 
L 274.4095 326.279609 
L 237.9055 326.279609 
z
" clip-path="url(#p9ee035799a)" style="fill: #7c3aed"/>
   </g>
   <g id="patch_62">
    <path d="M 284.7055 326.279609 
L 321.2095 326.279609 
L 321.2095 326.279609 
L 284.7055 326.279609 
z
" clip-path="url(#p9ee035799a)" style="fill: #7c3aed"/>
   </g>
   <g id="patch_63">
    <path d="M 331.5055 340.704652 
L 368.0095 340.704652 
L 368.0095 340.704652 
L 331.5055 340.704652 
z
" clip-path="url(#p9ee035799a)" style="fill: #7c3aed"/>
   </g>
   <g id="patch_64">
    <path d="M 378.3055 340.704652 
L 414.8095 340.704652 
L 414.8095 340.704652 
L 378.3055 340.704652 
z
" clip-path="url(#p9ee035799a)" style="fill: #7c3aed"/>
   </g>
   <g id="patch_65">
    <path d="M 425.1055 369.554739 
L 461.6095 369.554739 
L 461.6095 369.554739 
L 425.1055 369.554739 
z
" clip-path="url(#p9ee035799a)" style="fill: #7c3aed"/>
   </g>
   <g id="patch_66">
    <path d="M 471.9055 383.979783 
L 508.4095 383.979783 
L 508.4095 369.554739 
L 471.9055 369.554739 
z
" clip-path="url(#p9ee035799a)" style="fill: #7c3aed"/>
   </g>
   <g id="patch_67">
    <path d="M 518.7055 427.254913 
L 555.2095 427.254913 
L 555.2095 398.404826 
L 518.7055 398.404826 
z
" clip-path="url(#p9ee035799a)" style="fill: #7c3aed"/>
   </g>
   <g id="patch_68">
    <path d="M 565.5055 427.254913 
L 602.0095 427.254913 
L 602.0095 412.82987 
L 565.5055 412.82987 
z
" clip-path="url(#p9ee035799a)" style="fill: #7c3aed"/>
   </g>
   <g id="patch_69">
    <path d="M 612.3055 427.254913 
L 648.8095 427.254913 
L 648.8095 427.254913 
L 612.3055 427.254913 
z
" clip-path="url(#p9ee035799a)" style="fill: #7c3aed"/>
   </g>
   <g id="patch_70">
    <path d="M 659.1055 427.254913 
L 695.6095 427.254913 
L 695.6095 427.254913 
L 659.1055 427.254913 
z
" clip-path="url(#p9ee035799a)" style="fill: #7c3aed"/>
   </g>
   <g id="patch_71">
    <path d="M 705.9055 441.679957 
L 742.4095 441.679957 
L 742.4095 441.679957 
L 705.9055 441.679957 
z
" clip-path="url(#p9ee035799a)" style="fill: #7c3aed"/>
   </g>
   <g id="patch_72">
    <path d="M 752.7055 456.105 
L 789.2095 456.105 
L 789.2095 441.679957 
L 752.7055 441.679957 
z
" clip-path="url(#p9ee035799a)" style="fill: #7c3aed"/>
   </g>
   <g id="patch_73">
    <path d="M 799.5055 441.679957 
L 836.0095 441.679957 
L 836.0095 441.679957 
L 799.5055 441.679957 
z
" clip-path="url(#p9ee035799a)" style="fill: #7c3aed"/>
   </g>
   <g id="patch_74">
    <path d="M 846.3055 441.679957 
L 882.8095 441.679957 
L 882.8095 441.679957 
L 846.3055 441.679957 
z
" clip-path="url(#p9ee035799a)" style="fill: #7c3aed"/>
   </g>
   <g id="patch_75">
    <path d="M 40.8775 456.105 
L 40.8775 41.385 
" style="fill: none; opacity: 0.3; stroke: #475569; stroke-width: 0.8; stroke-linejoin: miter; stroke-linecap: square"/>
   </g>
   <g id="patch_76">
    <path d="M 40.8775 456.105 
L 892.6375 456.105 
" style="fill: none; opacity: 0.3; stroke: #475569; stroke-width: 0.8; stroke-linejoin: miter; stroke-linecap: square"/>
   </g>
   <g id="text_26">
    <text style="font-weight: 700; font-size: 10px; font-family: 'Helvetica', 'Arial', 'DejaVu Sans', sans-serif; text-anchor: middle; fill: #0f172a" x="68.9575" y="86.182016" transform="rotate(-0 68.9575 86.182016)">100%</text>
   </g>
   <g id="text_27">
    <text style="font-weight: 700; font-size: 10px; font-family: 'Helvetica', 'Arial', 'DejaVu Sans', sans-serif; text-anchor: middle; fill: #0f172a" x="115.7575" y="86.182016" transform="rotate(-0 115.7575 86.182016)">100%</text>
   </g>
   <g id="text_28">
    <text style="font-weight: 700; font-size: 10px; font-family: 'Helvetica', 'Arial', 'DejaVu Sans', sans-serif; text-anchor: middle; fill: #0f172a" x="162.5575" y="172.732277" transform="rotate(-0 162.5575 172.732277)">76%</text>
   </g>
   <g id="text_29">
    <text style="font-weight: 700; font-size: 10px; font-family: 'Helvetica', 'Arial', 'DejaVu Sans', sans-serif; text-anchor: middle; fill: #0f172a" x="209.3575" y="259.282538" transform="rotate(-0 209.3575 259.282538)">52%</text>
   </g>
   <g id="text_30">
    <text style="font-weight: 700; font-size: 10px; font-family: 'Helvetica', 'Arial', 'DejaVu Sans', sans-serif; text-anchor: middle; fill: #0f172a" x="256.1575" y="316.982712" transform="rotate(-0 256.1575 316.982712)">36%</text>
   </g>
   <g id="text_31">
    <text style="font-weight: 700; font-size: 10px; font-family: 'Helvetica', 'Arial', 'DejaVu Sans', sans-serif; text-anchor: middle; fill: #0f172a" x="302.9575" y="316.982712" transform="rotate(-0 302.9575 316.982712)">36%</text>
   </g>
   <g id="text_32">
    <text style="font-weight: 700; font-size: 10px; font-family: 'Helvetica', 'Arial', 'DejaVu Sans', sans-serif; text-anchor: middle; fill: #0f172a" x="349.7575" y="331.407755" transform="rotate(-0 349.7575 331.407755)">32%</text>
   </g>
   <g id="text_33">
    <text style="font-weight: 700; font-size: 10px; font-family: 'Helvetica', 'Arial', 'DejaVu Sans', sans-serif; text-anchor: middle; fill: #0f172a" x="396.5575" y="331.407755" transform="rotate(-0 396.5575 331.407755)">53%</text>
   </g>
   <g id="text_34">
    <text style="font-weight: 700; font-size: 10px; font-family: 'Helvetica', 'Arial', 'DejaVu Sans', sans-serif; text-anchor: middle; fill: #0f172a" x="443.3575" y="360.257842" transform="rotate(-0 443.3575 360.257842)">24%</text>
   </g>
   <g id="text_35">
    <text style="font-weight: 700; font-size: 10px; font-family: 'Helvetica', 'Arial', 'DejaVu Sans', sans-serif; text-anchor: middle; fill: #0f172a" x="490.1575" y="360.257842" transform="rotate(-0 490.1575 360.257842)">24%</text>
   </g>
   <g id="text_36">
    <text style="font-weight: 700; font-size: 10px; font-family: 'Helvetica', 'Arial', 'DejaVu Sans', sans-serif; text-anchor: middle; fill: #0f172a" x="536.9575" y="389.107929" transform="rotate(-0 536.9575 389.107929)">16%</text>
   </g>
   <g id="text_37">
    <text style="font-weight: 700; font-size: 10px; font-family: 'Helvetica', 'Arial', 'DejaVu Sans', sans-serif; text-anchor: middle; fill: #0f172a" x="583.7575" y="403.532973" transform="rotate(-0 583.7575 403.532973)">20%</text>
   </g>
   <g id="text_38">
    <text style="font-weight: 700; font-size: 10px; font-family: 'Helvetica', 'Arial', 'DejaVu Sans', sans-serif; text-anchor: middle; fill: #0f172a" x="630.5575" y="417.958016" transform="rotate(-0 630.5575 417.958016)">13%</text>
   </g>
   <g id="text_39">
    <text style="font-weight: 700; font-size: 10px; font-family: 'Helvetica', 'Arial', 'DejaVu Sans', sans-serif; text-anchor: middle; fill: #0f172a" x="677.3575" y="417.958016" transform="rotate(-0 677.3575 417.958016)">8%</text>
   </g>
   <g id="text_40">
    <text style="font-weight: 700; font-size: 10px; font-family: 'Helvetica', 'Arial', 'DejaVu Sans', sans-serif; text-anchor: middle; fill: #0f172a" x="724.1575" y="432.38306" transform="rotate(-0 724.1575 432.38306)">4%</text>
   </g>
   <g id="text_41">
    <text style="font-weight: 700; font-size: 10px; font-family: 'Helvetica', 'Arial', 'DejaVu Sans', sans-serif; text-anchor: middle; fill: #0f172a" x="770.9575" y="432.38306" transform="rotate(-0 770.9575 432.38306)">2%</text>
   </g>
   <g id="text_42">
    <text style="font-weight: 700; font-size: 10px; font-family: 'Helvetica', 'Arial', 'DejaVu Sans', sans-serif; text-anchor: middle; fill: #0f172a" x="817.7575" y="432.38306" transform="rotate(-0 817.7575 432.38306)">4%</text>
   </g>
   <g id="text_43">
    <text style="font-weight: 700; font-size: 10px; font-family: 'Helvetica', 'Arial', 'DejaVu Sans', sans-serif; text-anchor: middle; fill: #0f172a" x="864.5575" y="432.38306" transform="rotate(-0 864.5575 432.38306)">7%</text>
   </g>
   <g id="text_44">
    <text style="font-weight: 700; font-size: 14px; font-family: 'Helvetica', 'Arial', 'DejaVu Sans', sans-serif; text-anchor: start; fill: #0f172a" x="40.8775" y="17.385" transform="rotate(-0 40.8775 17.385)">Failure rate by task type · sorted by total failures</text>
   </g>
   <g id="legend_1">
    <g id="patch_77">
     <path d="M 229.477812 660.679 
L 243.477812 660.679 
L 243.477812 651.729 
L 229.477812 651.729 
z
" style="fill: #d97706"/>
    </g>
    <g id="text_45">
     <text style="font-size: 10px; font-family: 'Helvetica', 'Arial', 'DejaVu Sans', sans-serif; text-anchor: start; fill: #0f172a" x="249.477812" y="659.629" transform="rotate(-0 249.477812 659.629)">Assumption Violation</text>
    </g>
    <g id="patch_78">
     <path d="M 362.8575 660.679 
L 376.8575 660.679 
L 376.8575 651.729 
L 362.8575 651.729 
z
" style="fill: #dc2626"/>
    </g>
    <g id="text_46">
     <text style="font-size: 10px; font-family: 'Helvetica', 'Arial', 'DejaVu Sans', sans-serif; text-anchor: start; fill: #0f172a" x="382.8575" y="659.629" transform="rotate(-0 382.8575 659.629)">Mathematical Error</text>
    </g>
    <g id="patch_79">
     <path d="M 487.32 660.679 
L 501.32 660.679 
L 501.32 651.729 
L 487.32 651.729 
z
" style="fill: #475569"/>
    </g>
    <g id="text_47">
     <text style="font-size: 10px; font-family: 'Helvetica', 'Arial', 'DejaVu Sans', sans-serif; text-anchor: start; fill: #0f172a" x="507.32" y="659.629" transform="rotate(-0 507.32 659.629)">Formatting Failure</text>
    </g>
    <g id="patch_80">
     <path d="M 608.45125 660.679 
L 622.45125 660.679 
L 622.45125 651.729 
L 608.45125 651.729 
z
" style="fill: #7c3aed"/>
    </g>
    <g id="text_48">
     <text style="font-size: 10px; font-family: 'Helvetica', 'Arial', 'DejaVu Sans', sans-serif; text-anchor: start; fill: #0f172a" x="628.45125" y="659.629" transform="rotate(-0 628.45125 659.629)">Conceptual Error</text>
    </g>
   </g>
  </g>
 </g>
 <defs>
  <clipPath id="p9ee035799a">
   <rect x="40.8775" y="41.385" width="851.76" height="414.72"/>
  </clipPath>
 </defs>
</svg>
